<svg xmlns="http://www.w3.org/2000/svg" xmlns:xlink="http://www.w3.org/1999/xlink" width="500" zoomAndPan="magnify" viewBox="0 0 375 374.999991" height="500" preserveAspectRatio="xMidYMid meet" version="1.0"><defs><clipPath id="2d1ddac692"><path d="M 32.023438 97.109375 L 343.199219 97.109375 L 343.199219 277.855469 L 32.023438 277.855469 Z M 32.023438 97.109375 " clip-rule="nonzero"/></clipPath></defs><g clip-path="url(#2d1ddac692)"><path fill="#000000" d="M 213.761719 214.800781 C 206.328125 208.964844 190.433594 212.425781 184.859375 218.222656 C 181.957031 225.007812 183.472656 234.453125 180.941406 240.738281 C 176.097656 243.40625 167.683594 245.476562 161.835938 246.613281 C 147.085938 249.46875 130.257812 251.550781 115.300781 252.972656 C 111.042969 253.378906 104.730469 257.539062 102.566406 253.460938 C 117.191406 249.785156 133.871094 248.992188 152.039062 246.121094 C 159.417969 244.957031 176.855469 242.890625 179.472656 237.800781 C 180.054688 236.667969 179.359375 234.292969 179.964844 231.925781 C 181.519531 225.792969 181.644531 218.925781 184.859375 214.800781 C 170.957031 213.847656 157.441406 213.125 145.671875 217.246094 C 142.636719 220.761719 145.867188 227.796875 143.710938 232.417969 C 133.769531 235.261719 123.671875 238.816406 112.851562 242.207031 C 102.191406 245.546875 89.28125 246.179688 77.578125 247.101562 C 71.617188 247.570312 68.195312 248.277344 64.355469 249.058594 C 56.996094 250.550781 48.253906 249.644531 42.3125 253.953125 C 53.675781 257.445312 68.699219 253.378906 76.605469 260.316406 C 75.273438 264.371094 71.304688 265.789062 68.761719 268.632812 C 85.273438 265.890625 103.851562 263.230469 120.691406 260.804688 C 125.605469 260.097656 130.390625 259.835938 135.386719 259.335938 C 157.445312 257.132812 178.734375 253.492188 197.105469 249.058594 C 205.945312 246.925781 214.992188 245.800781 222.089844 241.226562 C 221.449219 232.921875 222.597656 226.398438 225.515625 221.652344 C 227.664062 220.367188 231.359375 220.640625 232.867188 218.714844 C 227.417969 216.816406 219.984375 212.792969 213.761719 214.800781 M 188.777344 198.648438 C 184.785156 201.183594 181.527344 204.453125 181.921875 211.371094 C 192.066406 212.757812 201.820312 207.066406 213.761719 210.394531 C 214.734375 205.328125 211.632812 198.527344 204.941406 198.15625 C 204.832031 210.199219 189.257812 210.816406 188.777344 198.648438 M 245.117188 217.738281 C 247.335938 217.527344 252.460938 215.371094 254.910156 214.308594 C 256.21875 213.742188 257.953125 213.757812 258.828125 213.332031 C 271.671875 207.074219 275.765625 194.808594 266.175781 182.007812 C 253.945312 174.101562 236.742188 173.421875 222.578125 173.6875 C 210.460938 173.917969 195.558594 172.640625 181.921875 173.6875 C 167.054688 174.828125 156.636719 178.320312 144.691406 182.007812 C 140.78125 188.859375 133.148438 195.507812 134.898438 206.480469 C 135.585938 210.8125 138.386719 213.664062 141.753906 216.265625 C 149.984375 210.8125 166.890625 211.882812 178.980469 211.863281 C 178.722656 201.613281 184.632812 195.046875 193.675781 195.710938 C 192.824219 198.523438 192.226562 201.386719 193.675781 204.03125 C 200.039062 207.078125 201.652344 200.316406 201.515625 196.199219 C 211.871094 192.21875 217.25 203.367188 217.191406 211.371094 C 226.121094 211.613281 234.941406 218.703125 245.117188 217.738281 M 307.324219 148.238281 C 302.066406 145.625 297.863281 142.527344 293.117188 138.449219 C 289.179688 135.0625 285.179688 129.882812 279.890625 127.683594 C 274.117188 125.28125 266.933594 127.460938 259.320312 126.210938 C 245.066406 123.878906 241.597656 110.734375 230.90625 105.65625 C 224.480469 102.605469 209.691406 102.839844 202.007812 106.148438 C 196.914062 108.335938 192.226562 115.675781 186.332031 118.871094 C 181.308594 121.589844 174.148438 123.316406 168.203125 123.769531 C 162.660156 124.1875 156.027344 122.828125 151.058594 125.234375 C 148.953125 126.253906 146.816406 129.53125 144.691406 131.597656 C 142.511719 133.71875 140.441406 135.988281 138.324219 137.957031 C 134.457031 141.558594 127.488281 146.832031 126.566406 152.152344 C 125.542969 158.101562 128.308594 165.160156 126.566406 170.75 C 124.089844 181.132812 104.746094 186.523438 105.015625 196.691406 C 105.113281 200.523438 110.148438 204.523438 112.359375 208.4375 C 116.589844 215.914062 115.632812 224.929688 119.21875 231.925781 C 123.164062 234.0625 132.4375 231.464844 137.835938 230.460938 C 138.601562 227.628906 142.0625 224.554688 140.28125 221.160156 C 139.101562 218.90625 135.195312 218.925781 132.9375 216.757812 C 126.191406 210.296875 128.210938 198.671875 131.953125 189.839844 C 136.546875 182.476562 143.847656 180.441406 153.019531 177.601562 C 156.339844 176.574219 159.527344 174.472656 162.820312 173.6875 C 169.4375 172.109375 177.917969 171.503906 184.859375 171.238281 C 213.003906 170.167969 245.84375 169.957031 267.648438 178.582031 C 272.578125 186.160156 279.949219 189.9375 278.421875 202.074219 C 277.082031 212.707031 265.144531 218.988281 255.890625 220.671875 C 250.550781 221.640625 240.777344 223.199219 235.316406 223.605469 C 232.414062 223.828125 228.761719 222.828125 226.988281 224.097656 C 224.414062 225.941406 224.394531 233.046875 225.03125 235.84375 C 256.144531 230.738281 302.628906 234.066406 334.753906 224.097656 C 332.675781 197.347656 319.003906 170.207031 307.324219 148.238281 M 54.558594 276.464844 C 55.523438 269.597656 62.257812 268.496094 64.847656 263.253906 C 52.492188 262.050781 39.230469 261.765625 32.023438 255.421875 C 36.304688 247.304688 44.75 245.34375 56.027344 243.675781 C 72.019531 241.3125 92.878906 239.601562 108.441406 236.824219 C 110.183594 231.601562 110.011719 222.441406 107.460938 215.285156 C 103.121094 203.082031 91.96875 199.988281 101.097656 187.882812 C 106.234375 181.066406 115.46875 176.621094 119.21875 169.773438 C 119.554688 162.949219 119.726562 157.203125 118.730469 151.171875 C 122.925781 142.417969 130.621094 135.445312 137.835938 128.171875 C 140.492188 125.488281 144.070312 121.164062 146.652344 119.851562 C 149.824219 118.242188 154.21875 119.484375 156.449219 115.9375 C 166.523438 116.023438 175.539062 117.570312 182.414062 113.488281 C 185.222656 111.820312 186.175781 108.984375 188.292969 107.125 C 191.542969 104.261719 196.519531 100.769531 200.539062 99.296875 C 209.113281 96.148438 228.675781 96.0625 236.296875 101.25 C 237.359375 101.980469 238.523438 103.699219 239.726562 104.679688 C 241.105469 105.804688 242.488281 106.550781 243.644531 107.617188 C 248.3125 111.90625 251.558594 117.144531 258.828125 119.851562 C 277.699219 118.144531 287.121094 124.105469 298.015625 134.042969 C 306.546875 141.820312 318.671875 146.023438 323.980469 155.089844 C 329.558594 164.617188 329.398438 176.382812 333.289062 186.414062 C 335.6875 192.601562 339.535156 198.351562 341.125 205.011719 C 341.707031 207.441406 341.082031 210.492188 341.613281 212.839844 C 342.429688 216.441406 344.734375 222.851562 341.613281 227.035156 C 339.617188 229.710938 336.621094 229 332.796875 229.972656 C 329.953125 230.691406 328.886719 231.101562 324.46875 231.925781 C 323.480469 232.113281 322.800781 233.285156 322.023438 233.398438 C 318.128906 233.945312 313.363281 233.261719 308.796875 233.886719 C 301.804688 234.84375 296.925781 235.636719 287.730469 236.332031 C 282.140625 236.757812 276.34375 238.582031 271.074219 238.78125 C 266.421875 238.957031 262 238.074219 257.359375 238.292969 C 253.101562 238.488281 248.722656 238.445312 244.128906 238.78125 C 238.863281 239.164062 231.792969 239.191406 230.417969 244.164062 C 227.207031 243.183594 225.386719 246.53125 223.070312 247.589844 C 215.839844 250.894531 205.609375 252.359375 195.640625 254.929688 C 173.503906 260.640625 146.847656 262.832031 122.160156 266.1875 C 103.617188 268.710938 82.875 270.757812 66.804688 275 C 62.691406 276.085938 59.511719 279.871094 54.558594 276.464844 " fill-opacity="1" fill-rule="evenodd"/></g><path fill="#e2ded7" d="M 293.609375 206.480469 C 294.785156 206.277344 294.671875 207.371094 296.058594 206.96875 C 296.078125 205.480469 296.339844 203.746094 294.589844 204.03125 C 294.375 204.960938 293.535156 205.261719 293.609375 206.480469 M 290.179688 203.050781 C 292.753906 203.335938 293.296875 201.597656 293.609375 199.625 C 293.039062 199.214844 292.296875 198.980469 291.15625 199.136719 C 291.476562 201.085938 289.863281 201.105469 290.179688 203.050781 M 136.855469 169.28125 C 140.285156 169.796875 140.570312 165.28125 137.34375 165.367188 C 137.085938 167.09375 135.910156 167.554688 136.855469 169.28125 M 136.855469 160.472656 C 137.433594 161.035156 138.589844 161.027344 139.792969 160.964844 C 140.824219 157.8125 136.375 157.792969 136.855469 160.472656 M 283.8125 155.089844 C 283.867188 156.335938 283.902344 157.605469 285.28125 157.535156 C 286.878906 156.828125 286.515625 156.441406 286.261719 154.597656 C 285.121094 154.445312 284.382812 154.679688 283.8125 155.089844 M 277.445312 154.109375 C 277.121094 156.878906 279.179688 159.328125 280.871094 158.515625 C 281.511719 155.921875 279.453125 156.015625 279.890625 153.621094 C 278.753906 153.464844 278.015625 153.699219 277.445312 154.109375 M 178.492188 142.363281 C 169.117188 134.835938 152.679688 147.246094 155.472656 159.003906 C 158.734375 158.949219 157.519531 155.503906 158.40625 153.621094 C 160.773438 148.609375 167.101562 142.546875 173.105469 143.34375 C 178.816406 144.101562 177.816406 151.574219 182.414062 154.109375 C 185.117188 151.558594 181.253906 144.578125 178.492188 142.363281 M 232.378906 139.917969 C 229.40625 139.78125 226.484375 139.605469 224.050781 138.9375 C 219.917969 141.492188 211.425781 149.980469 216.703125 154.109375 C 218.894531 147.300781 223.679688 138.734375 231.882812 143.34375 C 236.152344 145.738281 235.292969 152.484375 238.746094 156.558594 C 242.71875 150.472656 236.402344 142.8125 232.378906 139.917969 M 212.785156 136.980469 C 214.117188 138.089844 218.300781 140.496094 218.660156 136.980469 C 217.300781 136.53125 213.625 134.90625 212.785156 136.980469 M 213.269531 132.085938 C 214.601562 133.058594 217.8125 132.636719 217.679688 130.617188 C 216.433594 129.730469 213.230469 130.15625 213.269531 132.085938 M 334.753906 224.097656 C 302.628906 234.066406 256.144531 230.738281 225.03125 235.84375 C 224.394531 233.046875 224.414062 225.941406 226.988281 224.097656 C 228.761719 222.828125 232.414062 223.828125 235.316406 223.605469 C 240.777344 223.199219 250.550781 221.640625 255.890625 220.671875 C 265.144531 218.988281 277.082031 212.707031 278.421875 202.074219 C 279.949219 189.9375 272.578125 186.160156 267.648438 178.582031 C 245.84375 169.957031 213.003906 170.167969 184.859375 171.242188 C 177.917969 171.503906 169.4375 172.109375 162.820312 173.6875 C 159.527344 174.472656 156.339844 176.574219 153.019531 177.601562 C 143.847656 180.441406 136.546875 182.476562 131.953125 189.839844 C 128.210938 198.671875 126.191406 210.296875 132.9375 216.757812 C 135.195312 218.925781 139.105469 218.90625 140.28125 221.160156 C 142.0625 224.554688 138.601562 227.628906 137.835938 230.460938 C 132.4375 231.464844 123.164062 234.0625 119.21875 231.925781 C 115.636719 224.929688 116.589844 215.914062 112.363281 208.4375 C 110.148438 204.523438 105.113281 200.523438 105.015625 196.691406 C 104.75 186.523438 124.089844 181.132812 126.566406 170.75 C 128.308594 165.160156 125.542969 158.101562 126.566406 152.152344 C 127.484375 146.832031 134.453125 141.558594 138.324219 137.957031 C 140.441406 135.988281 142.511719 133.71875 144.691406 131.597656 C 146.816406 129.53125 148.953125 126.253906 151.058594 125.234375 C 156.03125 122.828125 162.660156 124.1875 168.203125 123.765625 C 174.148438 123.316406 181.308594 121.589844 186.332031 118.871094 C 192.226562 115.675781 196.914062 108.335938 202.007812 106.148438 C 209.691406 102.839844 224.480469 102.605469 230.90625 105.65625 C 241.597656 110.734375 245.066406 123.878906 259.320312 126.210938 C 266.933594 127.460938 274.117188 125.28125 279.890625 127.683594 C 285.179688 129.882812 289.179688 135.0625 293.117188 138.449219 C 297.863281 142.527344 302.066406 145.625 307.324219 148.238281 C 319.003906 170.207031 332.675781 197.347656 334.753906 224.097656 " fill-opacity="1" fill-rule="evenodd"/><path fill="#000000" d="M 217.679688 130.617188 C 217.8125 132.636719 214.601562 133.058594 213.269531 132.085938 C 213.230469 130.15625 216.433594 129.730469 217.679688 130.617188 " fill-opacity="1" fill-rule="evenodd"/><path fill="#000000" d="M 218.660156 136.980469 C 218.300781 140.496094 214.117188 138.089844 212.785156 136.980469 C 213.625 134.90625 217.300781 136.53125 218.660156 136.980469 " fill-opacity="1" fill-rule="evenodd"/><path fill="#000000" d="M 238.746094 156.558594 C 235.292969 152.484375 236.15625 145.738281 231.882812 143.34375 C 223.679688 138.734375 218.894531 147.300781 216.703125 154.109375 C 211.425781 149.976562 219.917969 141.492188 224.050781 138.9375 C 226.484375 139.605469 229.40625 139.78125 232.378906 139.917969 C 236.40625 142.8125 242.71875 150.472656 238.746094 156.558594 " fill-opacity="1" fill-rule="evenodd"/><path fill="#000000" d="M 182.414062 154.109375 C 177.816406 151.574219 178.816406 144.101562 173.105469 143.34375 C 167.101562 142.546875 160.773438 148.609375 158.40625 153.621094 C 157.519531 155.503906 158.734375 158.949219 155.472656 159.003906 C 152.679688 147.246094 169.117188 134.839844 178.492188 142.363281 C 181.25 144.578125 185.117188 151.558594 182.414062 154.109375 " fill-opacity="1" fill-rule="evenodd"/><path fill="#000000" d="M 279.890625 153.621094 C 279.453125 156.015625 281.511719 155.921875 280.871094 158.515625 C 279.179688 159.328125 277.121094 156.878906 277.445312 154.109375 C 278.015625 153.699219 278.753906 153.464844 279.890625 153.621094 " fill-opacity="1" fill-rule="evenodd"/><path fill="#000000" d="M 286.261719 154.597656 C 286.515625 156.441406 286.878906 156.828125 285.28125 157.535156 C 283.902344 157.605469 283.867188 156.335938 283.8125 155.089844 C 284.382812 154.679688 285.121094 154.445312 286.261719 154.597656 " fill-opacity="1" fill-rule="evenodd"/><path fill="#000000" d="M 139.792969 160.964844 C 138.589844 161.027344 137.433594 161.035156 136.855469 160.472656 C 136.378906 157.792969 140.824219 157.8125 139.792969 160.964844 " fill-opacity="1" fill-rule="evenodd"/><path fill="#000000" d="M 137.34375 165.367188 C 140.570312 165.28125 140.285156 169.796875 136.855469 169.28125 C 135.910156 167.554688 137.085938 167.09375 137.34375 165.367188 " fill-opacity="1" fill-rule="evenodd"/><path fill="#aa8c80" d="M 227.964844 201.097656 C 228.054688 200.527344 228.742188 200.5625 229.433594 200.605469 C 229.492188 198.753906 228.480469 197.972656 226.988281 197.671875 C 227.074219 199.054688 226.566406 201.027344 227.964844 201.097656 M 174.574219 197.671875 C 175.144531 197.75 175.105469 198.445312 175.066406 199.136719 C 176.890625 199.332031 177.9375 198.746094 178.003906 197.179688 C 176.933594 196.917969 174.832031 195.996094 174.574219 197.671875 M 233.84375 199.136719 C 233.773438 197.25 232.746094 196.320312 231.398438 195.710938 C 230.574219 196.890625 231.414062 199.683594 233.84375 199.136719 M 171.636719 193.265625 C 173.875 192.917969 177.707031 189.960938 175.550781 188.371094 C 174.308594 190.0625 171.230469 189.921875 171.636719 193.265625 M 217.191406 211.371094 C 217.25 203.367188 211.871094 192.21875 201.515625 196.199219 C 201.648438 200.316406 200.039062 207.078125 193.675781 204.03125 C 192.226562 201.386719 192.824219 198.523438 193.675781 195.710938 C 184.632812 195.046875 178.722656 201.613281 178.980469 211.863281 C 166.894531 211.882812 149.984375 210.8125 141.753906 216.265625 C 138.386719 213.664062 135.585938 210.8125 134.898438 206.480469 C 133.148438 195.507812 140.78125 188.859375 144.691406 182.007812 C 156.636719 178.320312 167.054688 174.828125 181.921875 173.6875 C 195.558594 172.640625 210.460938 173.917969 222.578125 173.6875 C 236.742188 173.421875 253.945312 174.101562 266.175781 182.007812 C 275.765625 194.808594 271.671875 207.074219 258.828125 213.332031 C 257.953125 213.757812 256.21875 213.742188 254.910156 214.308594 C 252.460938 215.371094 247.335938 217.527344 245.117188 217.738281 C 234.941406 218.703125 226.121094 211.613281 217.191406 211.371094 " fill-opacity="1" fill-rule="evenodd"/><path fill="#000000" d="M 175.550781 188.371094 C 177.707031 189.960938 173.875 192.917969 171.636719 193.265625 C 171.230469 189.921875 174.308594 190.0625 175.550781 188.371094 " fill-opacity="1" fill-rule="evenodd"/><path fill="#000000" d="M 231.398438 195.710938 C 232.746094 196.320312 233.773438 197.25 233.84375 199.136719 C 231.414062 199.683594 230.578125 196.890625 231.398438 195.710938 " fill-opacity="1" fill-rule="evenodd"/><path fill="#000000" d="M 178.003906 197.179688 C 177.9375 198.746094 176.890625 199.332031 175.0625 199.136719 C 175.105469 198.445312 175.144531 197.75 174.574219 197.671875 C 174.832031 195.996094 176.933594 196.917969 178.003906 197.179688 " fill-opacity="1" fill-rule="evenodd"/><path fill="#000000" d="M 226.988281 197.671875 C 228.480469 197.972656 229.492188 198.753906 229.433594 200.605469 C 228.742188 200.5625 228.054688 200.527344 227.964844 201.097656 C 226.566406 201.027344 227.074219 199.054688 226.988281 197.671875 " fill-opacity="1" fill-rule="evenodd"/><path fill="#d86161" d="M 204.941406 198.15625 C 211.632812 198.527344 214.734375 205.328125 213.761719 210.394531 C 201.820312 207.066406 192.066406 212.757812 181.921875 211.371094 C 181.527344 204.453125 184.785156 201.183594 188.777344 198.648438 C 189.257812 210.816406 204.832031 210.199219 204.941406 198.15625 " fill-opacity="1" fill-rule="evenodd"/><path fill="#000000" d="M 291.15625 199.136719 C 292.296875 198.980469 293.039062 199.214844 293.609375 199.625 C 293.296875 201.597656 292.753906 203.335938 290.179688 203.050781 C 289.863281 201.105469 291.476562 201.085938 291.15625 199.136719 " fill-opacity="1" fill-rule="evenodd"/><path fill="#000000" d="M 294.589844 204.03125 C 296.339844 203.746094 296.078125 205.480469 296.058594 206.96875 C 294.671875 207.371094 294.785156 206.277344 293.609375 206.480469 C 293.535156 205.261719 294.375 204.960938 294.589844 204.03125 " fill-opacity="1" fill-rule="evenodd"/><path fill="#ff9999" d="M 200.042969 238.78125 C 201.980469 239.976562 204.203125 237.894531 203.96875 235.355469 C 201.496094 235.332031 200.398438 236.683594 200.042969 238.78125 M 197.105469 234.378906 C 199.695312 234.351562 201.632812 233.675781 202.007812 231.441406 C 199.828125 230.140625 196.496094 231.320312 197.105469 234.378906 M 232.867188 218.714844 C 231.359375 220.640625 227.664062 220.367188 225.515625 221.652344 C 222.597656 226.398438 221.449219 232.921875 222.089844 241.226562 C 214.992188 245.800781 205.945312 246.929688 197.105469 249.058594 C 178.730469 253.492188 157.445312 257.132812 135.386719 259.335938 C 130.386719 259.835938 125.605469 260.097656 120.691406 260.804688 C 103.851562 263.230469 85.273438 265.890625 68.761719 268.632812 C 71.304688 265.792969 75.273438 264.371094 76.605469 260.316406 C 68.695312 253.378906 53.675781 257.445312 42.3125 253.953125 C 48.253906 249.644531 57 250.550781 64.355469 249.058594 C 68.195312 248.277344 71.617188 247.570312 77.582031 247.101562 C 89.28125 246.179688 102.191406 245.546875 112.851562 242.207031 C 123.671875 238.816406 133.769531 235.261719 143.710938 232.417969 C 145.867188 227.796875 142.632812 220.761719 145.671875 217.246094 C 157.441406 213.125 170.957031 213.847656 184.859375 214.800781 C 181.644531 218.925781 181.519531 225.792969 179.964844 231.925781 C 179.359375 234.292969 180.054688 236.667969 179.472656 237.800781 C 176.855469 242.890625 159.417969 244.957031 152.039062 246.125 C 133.871094 248.992188 117.1875 249.785156 102.566406 253.460938 C 104.730469 257.539062 111.042969 253.378906 115.300781 252.972656 C 130.257812 251.550781 147.089844 249.46875 161.835938 246.613281 C 167.683594 245.476562 176.097656 243.40625 180.941406 240.738281 C 183.472656 234.453125 181.957031 225.011719 184.859375 218.222656 C 190.433594 212.425781 206.328125 208.964844 213.761719 214.800781 C 219.984375 212.792969 227.417969 216.816406 232.867188 218.714844 " fill-opacity="1" fill-rule="evenodd"/><path fill="#000000" d="M 202.007812 231.441406 C 201.632812 233.675781 199.695312 234.351562 197.105469 234.378906 C 196.496094 231.320312 199.828125 230.140625 202.007812 231.441406 " fill-opacity="1" fill-rule="evenodd"/><path fill="#000000" d="M 203.96875 235.355469 C 204.203125 237.894531 201.980469 239.976562 200.042969 238.78125 C 200.398438 236.683594 201.496094 235.332031 203.96875 235.355469 " fill-opacity="1" fill-rule="evenodd"/></svg>