<svg xmlns="http://www.w3.org/2000/svg" xmlns:xlink="http://www.w3.org/1999/xlink" width="500" zoomAndPan="magnify" viewBox="0 0 375 374.999991" height="500" preserveAspectRatio="xMidYMid meet" version="1.0"><defs><clipPath id="55d54eff4b"><path d="M 18.394531 100.3125 L 337.824219 100.3125 L 337.824219 285.5625 L 18.394531 285.5625 Z M 18.394531 100.3125 " clip-rule="nonzero"/></clipPath><clipPath id="72b70fab70"><path d="M 140.101562 139 L 178 139 L 178 181.425781 L 140.101562 181.425781 Z M 140.101562 139 " clip-rule="nonzero"/></clipPath><clipPath id="e84d96216a"><path d="M 147.601562 156.75 C 144.601562 180.601562 143.925781 181.125 143.398438 181.050781 C 142.875 180.976562 142.199219 180.226562 141.898438 179.101562 C 140.851562 175.425781 143.175781 156.148438 144.75 152.851562 C 145.199219 151.949219 145.726562 151.425781 146.25 151.351562 C 146.773438 151.273438 147.449219 151.726562 147.824219 152.324219 C 148.5 153.449219 148.726562 157.5 147.976562 158.550781 C 147.523438 159.226562 146.398438 159.523438 145.800781 159.375 C 145.273438 159.226562 144.75 158.625 144.601562 157.726562 C 144.148438 155.25 146.851562 144.226562 148.425781 142.5 C 148.949219 141.898438 149.550781 141.824219 150.074219 141.898438 C 150.675781 142.050781 151.273438 142.425781 151.726562 143.398438 C 153.300781 146.550781 155.398438 164.550781 154.050781 167.625 C 153.601562 168.601562 152.699219 169.050781 152.101562 169.050781 C 151.648438 169.050781 151.199219 168.75 150.75 168.148438 C 149.25 166.273438 145.351562 155.773438 145.125 153.375 C 145.050781 152.625 145.050781 152.25 145.351562 151.875 C 145.648438 151.5 146.25 151.125 146.699219 151.199219 C 147.226562 151.273438 147.976562 151.800781 148.199219 152.324219 C 148.5 153 148.050781 153.898438 147.824219 155.175781 C 147.375 157.800781 146.550781 165.523438 145.199219 167.25 C 144.601562 167.925781 143.851562 168.226562 143.25 168.148438 C 142.648438 168.074219 142.125 167.476562 141.75 166.648438 C 140.851562 164.550781 140.699219 155.925781 141.601562 153.898438 C 141.976562 153.074219 142.574219 152.550781 143.175781 152.476562 C 143.773438 152.398438 144.523438 152.699219 145.125 153.449219 C 146.625 155.25 148.875 163.800781 148.875 166.050781 C 148.875 166.875 148.726562 167.398438 148.351562 167.773438 C 147.976562 168.148438 147.074219 168.523438 146.550781 168.375 C 145.949219 168.226562 145.351562 167.699219 144.976562 166.800781 C 143.925781 164.398438 143.699219 153.898438 144.523438 151.648438 C 144.824219 150.898438 145.199219 150.449219 145.726562 150.300781 C 146.324219 150.148438 147.148438 150.375 147.824219 150.824219 C 148.800781 151.5 150.300781 153.523438 150.523438 154.648438 C 150.675781 155.324219 150.601562 156.074219 150.226562 156.523438 C 149.851562 156.976562 149.101562 157.273438 148.5 157.273438 C 147.976562 157.273438 147.074219 157.050781 146.851562 156.375 C 146.175781 154.648438 149.324219 144.75 150.976562 143.550781 C 151.574219 143.101562 152.398438 143.25 152.925781 143.476562 C 153.449219 143.699219 153.75 144.148438 154.125 144.976562 C 155.023438 147.074219 156.148438 155.925781 155.699219 157.875 C 155.550781 158.550781 155.324219 158.851562 154.949219 159.074219 C 154.5 159.375 153.75 159.601562 153.226562 159.375 C 152.699219 159.148438 151.949219 158.398438 151.875 157.574219 C 151.800781 155.699219 155.550781 150.375 157.425781 148.273438 C 158.625 146.925781 159.75 145.574219 161.101562 145.5 C 162.601562 145.425781 164.324219 147 165.976562 148.425781 C 168.300781 150.449219 172.273438 155.175781 173.023438 157.125 C 173.324219 157.949219 173.398438 158.699219 173.101562 159.148438 C 172.726562 159.675781 171.300781 160.125 170.773438 159.824219 C 170.101562 159.375 170.023438 157.351562 169.949219 155.851562 C 169.800781 153.976562 169.949219 150.523438 170.476562 149.324219 C 170.699219 148.800781 170.925781 148.425781 171.375 148.273438 C 171.976562 148.050781 173.175781 148.199219 173.925781 148.800781 C 175.199219 149.925781 177.074219 154.875 176.773438 156.375 C 176.625 157.125 175.949219 157.648438 175.351562 157.800781 C 174.75 157.949219 174.148438 157.875 173.324219 157.425781 C 170.925781 156.148438 166.199219 147.675781 161.699219 146.175781 C 157.5 144.75 149.625 148.949219 147.523438 147.976562 C 146.625 147.601562 146.25 146.625 146.25 145.949219 C 146.25 145.273438 146.851562 144.523438 147.75 144.074219 C 149.773438 143.101562 157.351562 143.398438 159.601562 144.074219 C 160.574219 144.375 161.25 144.75 161.550781 145.351562 C 161.773438 145.875 161.625 146.773438 161.324219 147.226562 C 161.023438 147.675781 160.273438 147.523438 159.601562 148.125 C 157.875 149.550781 153.675781 156.375 151.875 157.5 C 151.125 157.949219 150.601562 158.023438 150.074219 157.875 C 149.550781 157.726562 148.949219 157.125 148.726562 156.675781 C 148.5 156.226562 148.574219 155.925781 148.726562 155.25 C 149.101562 153.601562 150.75 147.75 152.773438 146.699219 C 154.351562 145.875 156.898438 147.074219 158.773438 147.523438 C 160.5 147.976562 163.273438 149.773438 163.574219 149.398438 C 163.949219 148.875 157.875 143.773438 157.199219 142.199219 C 156.976562 141.601562 156.976562 141.226562 157.125 140.773438 C 157.351562 140.324219 157.949219 139.648438 158.476562 139.5 C 159.074219 139.351562 159.75 139.574219 160.648438 140.175781 C 162.976562 141.824219 170.175781 150.976562 170.773438 153.675781 C 171 154.726562 170.773438 155.625 170.324219 156 C 169.875 156.375 168.824219 156.449219 168.226562 156.074219 C 167.175781 155.324219 167.476562 151.648438 166.199219 149.851562 C 164.773438 147.898438 160.5 146.550781 159.824219 145.050781 C 159.449219 144.300781 159.675781 143.324219 159.976562 142.800781 C 160.199219 142.351562 160.800781 141.976562 161.324219 141.824219 C 161.851562 141.675781 162.226562 141.675781 163.050781 141.898438 C 165.523438 142.648438 175.351562 147.898438 177.148438 150 C 177.824219 150.75 177.976562 151.125 177.976562 152.101562 C 178.050781 154.199219 175.726562 160.273438 174.449219 162.300781 C 173.851562 163.273438 173.324219 164.023438 172.5 164.25 C 171.523438 164.476562 170.023438 164.101562 168.898438 163.273438 C 167.324219 162.148438 164.773438 158.625 164.773438 157.199219 C 164.773438 156.449219 165.449219 155.699219 166.050781 155.398438 C 166.648438 155.101562 167.699219 155.101562 168.300781 155.398438 C 168.898438 155.699219 169.574219 156.601562 169.574219 157.273438 C 169.574219 158.023438 168.75 159.375 168.074219 159.675781 C 167.476562 159.976562 166.351562 159.824219 165.824219 159.449219 C 165.300781 159.074219 164.773438 158.175781 164.773438 157.5 C 164.773438 156.824219 165.226562 155.773438 165.824219 155.476562 C 166.5 155.101562 167.851562 155.25 168.75 155.699219 C 169.875 156.300781 171.523438 158.398438 171.523438 159.449219 C 171.523438 160.199219 170.398438 161.476562 170.25 161.398438 C 170.023438 161.25 174.300781 154.574219 173.25 152.023438 C 171.976562 148.875 160.949219 147.074219 159.824219 145.050781 C 159.375 144.226562 159.601562 143.398438 159.976562 142.800781 C 160.351562 142.273438 161.175781 141.675781 161.925781 141.675781 C 163.125 141.675781 165.226562 143.476562 166.5 144.449219 C 167.550781 145.199219 168.375 145.875 169.050781 146.773438 C 169.726562 147.75 170.101562 148.875 170.398438 150.074219 C 170.773438 151.5 171.226562 153.976562 171 154.949219 C 170.851562 155.476562 170.625 155.773438 170.324219 156 C 170.023438 156.226562 169.5 156.449219 169.050781 156.375 C 168.601562 156.300781 168.074219 156 167.625 155.476562 C 166.800781 154.648438 166.351562 153 165.226562 151.425781 C 163.425781 148.949219 158.324219 144.523438 157.425781 142.574219 C 157.050781 141.824219 156.898438 141.300781 157.125 140.773438 C 157.351562 140.175781 158.324219 139.5 158.925781 139.425781 C 159.449219 139.351562 159.976562 139.726562 160.648438 140.175781 C 162.074219 141.148438 164.925781 143.851562 166.273438 145.800781 C 167.398438 147.449219 168.824219 149.625 168.675781 150.976562 C 168.601562 151.875 167.699219 152.699219 166.949219 153.148438 C 166.050781 153.675781 164.851562 153.898438 163.574219 153.75 C 161.851562 153.601562 159.226562 151.875 157.574219 151.5 C 156.523438 151.273438 155.550781 150.898438 154.800781 151.351562 C 153.601562 152.101562 153.226562 156.148438 152.25 157.125 C 151.726562 157.648438 151.125 157.949219 150.601562 157.949219 C 150 157.875 148.949219 157.273438 148.726562 156.675781 C 148.425781 156 148.875 154.875 149.476562 153.824219 C 150.601562 151.800781 154.5 148.050781 156.449219 146.324219 C 157.648438 145.273438 158.699219 144.074219 159.601562 144.074219 C 160.351562 144.074219 161.25 144.824219 161.550781 145.351562 C 161.773438 145.800781 161.773438 146.398438 161.550781 146.851562 C 161.324219 147.300781 160.875 147.75 160.125 148.050781 C 158.175781 148.800781 150.75 148.949219 148.5 148.199219 C 147.375 147.824219 146.550781 147.074219 146.324219 146.476562 C 146.175781 146.023438 146.324219 145.351562 146.550781 144.976562 C 146.773438 144.601562 147.074219 144.375 147.75 144.074219 C 149.699219 143.25 157.574219 141.824219 160.5 142.050781 C 162 142.199219 162.523438 142.351562 163.949219 143.175781 C 167.023438 144.976562 175.648438 152.699219 176.699219 154.875 C 177 155.550781 176.925781 155.925781 176.773438 156.375 C 176.550781 156.898438 175.949219 157.648438 175.351562 157.800781 C 174.675781 157.949219 173.625 157.726562 172.949219 157.050781 C 171.75 155.925781 170.023438 151.425781 170.398438 149.851562 C 170.625 148.949219 171.601562 147.976562 172.273438 147.976562 C 172.949219 147.976562 173.925781 148.726562 174.300781 149.625 C 174.976562 151.351562 173.851562 157.273438 173.25 158.773438 C 173.023438 159.300781 172.875 159.601562 172.5 159.75 C 172.050781 159.976562 171.449219 160.125 170.773438 159.824219 C 169.125 159.074219 166.125 152.851562 164.023438 151.425781 C 162.824219 150.601562 161.773438 150 160.648438 150.375 C 158.773438 151.050781 156.898438 157.5 155.324219 158.699219 C 154.574219 159.300781 153.824219 159.523438 153.226562 159.375 C 152.699219 159.226562 152.25 158.625 151.949219 158.101562 C 151.648438 157.5 151.726562 156.824219 151.574219 155.699219 C 151.199219 153.375 149.625 146.550781 150.074219 144.75 C 150.226562 144.074219 150.523438 143.773438 150.976562 143.550781 C 151.574219 143.324219 152.851562 143.324219 153.375 143.699219 C 153.824219 144 154.050781 144.75 154.125 145.5 C 154.199219 146.625 153.449219 148.425781 152.851562 149.851562 C 152.175781 151.351562 150.675781 152.925781 150.300781 154.199219 C 150.074219 155.023438 150.523438 156 150.226562 156.523438 C 150 156.976562 149.398438 157.199219 148.949219 157.273438 C 148.425781 157.351562 147.75 157.199219 147.148438 156.75 C 146.175781 155.925781 144.300781 152.773438 144.523438 151.648438 C 144.675781 150.976562 145.574219 150.226562 146.175781 150.226562 C 146.851562 150.226562 147.75 150.675781 148.273438 151.648438 C 149.550781 154.050781 149.625 165.976562 148.351562 167.773438 C 147.898438 168.375 147.074219 168.449219 146.550781 168.375 C 146.023438 168.300781 145.574219 167.925781 145.125 167.25 C 143.851562 165.300781 140.851562 156 141.601562 153.898438 C 141.898438 153 143.023438 152.398438 143.625 152.476562 C 144.226562 152.550781 144.976562 153.300781 145.351562 154.351562 C 146.25 156.601562 146.398438 164.851562 145.351562 166.800781 C 144.898438 167.699219 143.851562 168.148438 143.25 168.148438 C 142.726562 168.148438 142.125 167.550781 141.898438 167.101562 C 141.675781 166.726562 141.75 166.425781 141.824219 165.75 C 142.050781 163.574219 143.773438 154.125 145.125 152.25 C 145.648438 151.574219 146.175781 151.199219 146.699219 151.199219 C 147.300781 151.199219 147.898438 151.726562 148.5 152.625 C 150.148438 154.875 154.726562 165.375 154.050781 167.625 C 153.75 168.523438 152.699219 169.050781 152.101562 169.050781 C 151.574219 169.050781 151.050781 168.601562 150.601562 167.773438 C 149.023438 164.773438 146.550781 144.675781 148.425781 142.5 C 149.023438 141.824219 150.449219 141.898438 150.976562 142.273438 C 151.5 142.574219 151.648438 143.324219 151.726562 144.300781 C 151.875 146.925781 149.25 157.199219 147.75 158.851562 C 147.226562 159.375 146.699219 159.523438 146.175781 159.449219 C 145.726562 159.375 145.125 159.074219 144.824219 158.550781 C 144.226562 157.5 144.148438 153.601562 144.824219 152.476562 C 145.199219 151.800781 146.101562 151.273438 146.625 151.351562 C 147.148438 151.425781 147.601562 152.101562 147.898438 153.074219 C 148.875 156.601562 146.925781 176.476562 145.125 179.699219 C 144.601562 180.601562 143.925781 181.125 143.398438 181.050781 C 142.875 180.976562 142.199219 180.148438 141.898438 179.101562 C 141.300781 176.699219 143.625 169.574219 143.925781 165.449219 C 144.226562 162.074219 143.175781 157.949219 144.074219 156.300781 C 144.523438 155.476562 145.425781 154.875 146.023438 154.949219 C 146.625 155.023438 147.601562 156.75 147.601562 156.75 " clip-rule="nonzero"/></clipPath><clipPath id="a17a789622"><path d="M 199 137.324219 L 238.648438 137.324219 L 238.648438 167 L 199 167 Z M 199 137.324219 " clip-rule="nonzero"/></clipPath><clipPath id="eb135c7bc4"><path d="M 220.875 143.324219 C 212.101562 152.175781 209.851562 153.675781 207.976562 154.648438 C 206.625 155.324219 204.976562 155.398438 204.300781 156.074219 C 203.851562 156.523438 204.074219 157.273438 203.699219 157.648438 C 203.25 158.101562 202.273438 158.398438 201.675781 158.324219 C 201.148438 158.25 200.625 157.875 200.25 157.5 C 199.949219 157.125 199.574219 156.523438 199.648438 156 C 199.726562 155.398438 200.101562 154.726562 200.851562 153.976562 C 202.5 152.25 209.324219 149.398438 210.523438 147.074219 C 211.273438 145.648438 210.148438 143.773438 210.523438 142.875 C 210.75 142.273438 211.273438 141.898438 211.800781 141.75 C 212.25 141.601562 212.925781 141.523438 213.449219 141.75 C 214.050781 141.976562 214.726562 142.648438 214.949219 143.398438 C 215.25 144.300781 215.023438 145.648438 214.648438 147.074219 C 214.050781 149.25 212.25 152.625 210.898438 154.875 C 209.773438 156.824219 208.726562 159.148438 207.375 159.976562 C 206.398438 160.574219 205.050781 160.726562 204.300781 160.351562 C 203.550781 159.976562 202.648438 158.398438 202.800781 157.574219 C 202.949219 156.675781 204.375 156 205.648438 155.25 C 207.523438 154.125 211.574219 153.824219 213.375 151.949219 C 215.175781 150 215.851562 146.023438 216.375 143.699219 C 216.75 142.050781 216.226562 140.324219 216.75 139.351562 C 217.050781 138.675781 217.648438 138.300781 218.25 138.074219 C 218.773438 137.851562 219.601562 137.851562 220.125 138.074219 C 220.800781 138.375 221.398438 139.125 221.773438 140.023438 C 222.375 141.449219 222.074219 144.675781 222.523438 146.398438 C 222.824219 147.601562 223.050781 148.351562 223.800781 149.398438 C 225 150.976562 227.773438 152.25 229.875 154.199219 C 232.425781 156.523438 236.851562 160.648438 237.824219 162.75 C 238.273438 163.726562 238.273438 164.550781 238.050781 165.226562 C 237.824219 165.824219 237.300781 166.425781 236.773438 166.648438 C 236.25 166.875 235.5 166.949219 234.898438 166.800781 C 234.300781 166.648438 234 166.425781 233.324219 165.75 C 231 163.648438 221.175781 153.523438 220.574219 150.074219 C 220.273438 148.648438 221.023438 147.523438 221.699219 146.699219 C 222.375 145.875 223.726562 145.125 224.699219 144.976562 C 225.523438 144.824219 226.199219 144.976562 227.101562 145.5 C 229.050781 146.625 234 151.425781 234.675781 153.449219 C 234.976562 154.425781 234.75 155.324219 234.300781 155.925781 C 233.851562 156.523438 232.949219 157.050781 232.050781 156.976562 C 230.550781 156.898438 228 154.875 226.199219 153.449219 C 224.25 151.875 221.773438 149.324219 220.800781 147.824219 C 220.273438 147 220.574219 146.023438 219.976562 145.648438 C 219 145.125 216.148438 146.699219 214.726562 146.550781 C 213.675781 146.398438 212.699219 145.273438 212.175781 145.5 C 211.648438 145.726562 211.648438 147.75 211.5 147.75 C 211.351562 147.75 210.75 144.898438 211.5 144.226562 C 213 142.949219 221.773438 145.273438 224.476562 146.25 C 225.898438 146.773438 226.726562 147.375 227.398438 148.050781 C 227.851562 148.574219 228.226562 149.023438 228.300781 149.625 C 228.375 150.375 227.925781 151.648438 227.476562 152.175781 C 227.101562 152.625 226.5 152.925781 225.898438 152.925781 C 225.148438 152.925781 223.949219 152.550781 223.425781 151.949219 C 222.898438 151.351562 222.601562 150.148438 222.824219 149.398438 C 223.050781 148.648438 223.949219 147.75 224.625 147.449219 C 225.148438 147.226562 225.898438 147.300781 226.425781 147.449219 C 226.949219 147.601562 227.550781 147.976562 227.851562 148.5 C 228.226562 149.101562 228.523438 150.375 228.148438 151.125 C 227.773438 151.949219 226.351562 152.851562 225.300781 152.925781 C 224.023438 153 222.75 151.648438 220.949219 151.125 C 218.101562 150.300781 211.574219 150 209.550781 148.949219 C 208.648438 148.5 208.199219 148.125 207.898438 147.449219 C 207.449219 146.550781 207.226562 144.824219 207.75 143.773438 C 208.351562 142.5 210.300781 141.375 212.175781 140.851562 C 214.800781 140.101562 219.523438 139.726562 222.375 141.074219 C 225.300781 142.425781 227.476562 147.300781 229.273438 149.25 C 230.324219 150.375 231 151.199219 231.898438 151.800781 C 232.726562 152.324219 233.925781 152.175781 234.375 152.851562 C 234.824219 153.523438 234.675781 155.25 234.300781 155.925781 C 234 156.449219 233.25 156.75 232.648438 156.898438 C 232.050781 157.050781 231.449219 156.976562 230.773438 156.675781 C 229.5 156.074219 226.949219 153.824219 226.125 152.398438 C 225.523438 151.351562 225 149.398438 225.375 149.25 C 226.199219 148.800781 236.550781 160.199219 237.824219 162.75 C 238.199219 163.574219 238.273438 163.949219 238.199219 164.550781 C 238.125 165.148438 237.75 165.898438 237.300781 166.273438 C 236.851562 166.648438 236.175781 166.949219 235.574219 166.949219 C 234.976562 166.949219 234.601562 166.726562 233.773438 166.199219 C 231.226562 164.476562 222.375 156.601562 219.675781 152.550781 C 218.023438 150.074219 217.425781 147.824219 216.898438 145.648438 C 216.449219 143.851562 216.148438 141.824219 216.449219 140.550781 C 216.675781 139.648438 217.050781 138.824219 217.648438 138.375 C 218.25 137.925781 219.449219 137.773438 220.125 138.074219 C 220.800781 138.375 221.476562 139.125 221.773438 140.023438 C 222.226562 141.449219 221.699219 144.226562 221.175781 146.398438 C 220.574219 148.800781 219.523438 151.648438 218.324219 153.601562 C 217.273438 155.25 216.375 156.523438 214.726562 157.648438 C 212.625 159.074219 206.398438 161.023438 206.101562 160.574219 C 205.949219 160.273438 208.199219 158.101562 208.273438 158.175781 C 208.351562 158.25 207.824219 159.523438 207.375 159.976562 C 206.925781 160.351562 206.175781 160.648438 205.574219 160.648438 C 204.976562 160.648438 204.148438 160.351562 203.699219 159.976562 C 203.25 159.601562 202.875 158.925781 202.800781 158.25 C 202.726562 157.5 203.023438 156.375 203.476562 155.699219 C 203.925781 155.023438 204.675781 154.949219 205.351562 154.199219 C 206.625 152.773438 208.726562 149.324219 209.550781 147.226562 C 210.148438 145.648438 209.773438 143.773438 210.523438 142.875 C 211.050781 142.125 212.25 141.675781 212.925781 141.675781 C 213.449219 141.675781 214.050781 142.050781 214.425781 142.425781 C 214.800781 142.800781 214.949219 143.324219 215.023438 144 C 215.101562 145.351562 214.726562 148.199219 213.75 149.851562 C 212.699219 151.5 210.523438 152.699219 208.875 153.75 C 207.375 154.726562 205.351562 155.175781 204.300781 156.074219 C 203.550781 156.75 203.398438 158.023438 202.726562 158.25 C 202.050781 158.476562 200.773438 157.949219 200.25 157.5 C 199.875 157.125 199.648438 156.601562 199.648438 156 C 199.648438 155.25 200.101562 154.273438 200.925781 153.375 C 202.648438 151.574219 208.351562 149.925781 211.273438 147.601562 C 213.898438 145.5 215.925781 141.074219 217.800781 140.25 C 218.851562 139.800781 220.050781 140.023438 220.648438 140.398438 C 221.101562 140.699219 221.324219 141.300781 221.324219 141.824219 C 221.324219 142.273438 220.875 143.324219 220.875 143.324219 " clip-rule="nonzero"/></clipPath><clipPath id="10f0589d35"><path d="M 145 144 L 169.5 144 L 169.5 174 L 145 174 Z M 145 144 " clip-rule="nonzero"/></clipPath><clipPath id="1672f64785"><path d="M 168.300781 148.273438 C 159.523438 157.050781 152.25 171.148438 149.101562 173.023438 C 148.050781 173.625 147.148438 173.625 146.550781 173.324219 C 146.023438 173.023438 145.5 172.199219 145.5 171.601562 C 145.5 171 145.875 170.175781 146.324219 169.800781 C 146.773438 169.425781 147.75 169.273438 148.273438 169.425781 C 148.875 169.574219 149.550781 170.25 149.699219 170.851562 C 149.851562 171.449219 149.699219 172.425781 149.25 172.875 C 148.726562 173.324219 147.375 173.625 146.699219 173.398438 C 146.175781 173.175781 145.648438 172.351562 145.5 171.824219 C 145.425781 171.375 145.425781 171.148438 145.726562 170.476562 C 147.074219 167.398438 159.601562 150.75 163.199219 147.148438 C 164.550781 145.800781 165.375 145.125 166.273438 144.824219 C 166.800781 144.601562 167.324219 144.601562 167.773438 144.75 C 168.300781 144.976562 168.898438 145.574219 169.050781 146.101562 C 169.199219 146.699219 168.300781 148.351562 168.300781 148.351562 " clip-rule="nonzero"/></clipPath><clipPath id="b628746659"><path d="M 140.476562 149 L 174.226562 149 L 174.226562 168 L 140.476562 168 Z M 140.476562 149 " clip-rule="nonzero"/></clipPath><clipPath id="d97be057c8"><path d="M 144.148438 149.699219 C 157.726562 158.550781 171.226562 161.550781 173.398438 163.949219 C 174.074219 164.699219 174.074219 165.449219 174 166.050781 C 173.925781 166.574219 173.699219 167.101562 173.25 167.398438 C 172.648438 167.773438 171.074219 167.925781 170.398438 167.550781 C 169.800781 167.25 169.199219 166.273438 169.273438 165.601562 C 169.351562 164.851562 170.25 163.574219 171 163.351562 C 171.75 163.125 173.25 163.726562 173.699219 164.324219 C 174.074219 164.851562 174.148438 165.976562 173.851562 166.574219 C 173.476562 167.25 172.425781 167.925781 171.300781 167.925781 C 169.125 167.925781 165 164.476562 161.625 162.976562 C 158.101562 161.398438 153.976562 160.648438 150.523438 158.925781 C 147.148438 157.273438 142.199219 154.726562 141.226562 152.773438 C 140.699219 151.800781 140.851562 150.449219 141.300781 149.925781 C 141.75 149.398438 144.148438 149.699219 144.148438 149.699219 " clip-rule="nonzero"/></clipPath><clipPath id="c31cde5cab"><path d="M 209.257812 143 L 243 143 L 243 162 L 209.257812 162 Z M 209.257812 143 " clip-rule="nonzero"/></clipPath><clipPath id="73c50a1339"><path d="M 212.933594 143.398438 C 226.507812 152.25 240.007812 155.25 242.183594 157.648438 C 242.855469 158.398438 242.855469 159.148438 242.78125 159.75 C 242.707031 160.273438 242.480469 160.800781 242.03125 161.101562 C 241.433594 161.476562 239.855469 161.625 239.183594 161.25 C 238.582031 160.949219 237.980469 159.976562 238.058594 159.300781 C 238.132812 158.550781 239.03125 157.273438 239.78125 157.050781 C 240.53125 156.824219 242.03125 157.425781 242.480469 158.023438 C 242.855469 158.550781 242.933594 159.675781 242.632812 160.273438 C 242.257812 160.949219 241.207031 161.625 240.082031 161.625 C 237.90625 161.625 233.78125 158.175781 230.40625 156.675781 C 226.882812 155.101562 222.757812 154.351562 219.308594 152.625 C 215.933594 150.976562 210.980469 148.425781 210.007812 146.476562 C 209.480469 145.5 209.632812 144.148438 210.082031 143.625 C 210.53125 143.101562 212.933594 143.398438 212.933594 143.398438 " clip-rule="nonzero"/></clipPath><clipPath id="d60d9d7b98"><path d="M 216 136 L 237 136 L 237 169 L 216 169 Z M 216 136 " clip-rule="nonzero"/></clipPath><clipPath id="64420694d0"><path d="M 236.820312 135.71875 L 235.6875 169.449219 L 216.199219 168.796875 L 217.332031 135.0625 Z M 236.820312 135.71875 " clip-rule="nonzero"/></clipPath><clipPath id="bc7e067c71"><path d="M 235.949219 139.367188 C 226.648438 152.636719 223.195312 166.027344 220.722656 168.121094 C 219.953125 168.769531 219.203125 168.746094 218.605469 168.652344 C 218.082031 168.558594 217.566406 168.316406 217.28125 167.855469 C 216.925781 167.242188 216.828125 165.664062 217.226562 165.003906 C 217.546875 164.414062 218.539062 163.847656 219.214844 163.945312 C 219.960938 164.042969 221.203125 164.984375 221.402344 165.742188 C 221.601562 166.5 220.953125 167.980469 220.339844 168.410156 C 219.800781 168.765625 218.675781 168.804688 218.085938 168.484375 C 217.421875 168.085938 216.785156 167.015625 216.820312 165.890625 C 216.894531 163.714844 220.480469 159.707031 222.09375 156.386719 C 223.785156 152.917969 224.675781 148.820312 226.515625 145.429688 C 228.277344 142.109375 230.992188 137.25 232.972656 136.339844 C 233.964844 135.847656 235.308594 136.042969 235.820312 136.511719 C 236.328125 136.980469 235.949219 139.367188 235.949219 139.367188 " clip-rule="nonzero"/></clipPath></defs><g clip-path="url(#55d54eff4b)"><path fill="#000000" d="M 204.953125 220.933594 C 197.320312 214.957031 181.003906 218.5 175.285156 224.445312 C 172.304688 231.398438 173.859375 241.078125 171.261719 247.519531 C 166.289062 250.253906 157.652344 252.375 151.652344 253.539062 C 136.507812 256.464844 119.234375 258.601562 103.878906 260.058594 C 99.507812 260.476562 93.03125 264.738281 90.808594 260.558594 C 105.820312 256.789062 122.945312 255.980469 141.59375 253.039062 C 149.167969 251.84375 167.066406 249.726562 169.753906 244.507812 C 170.351562 243.347656 169.636719 240.914062 170.257812 238.488281 C 171.855469 232.199219 171.984375 225.164062 175.285156 220.933594 C 161.015625 219.957031 147.136719 219.21875 135.058594 223.441406 C 131.9375 227.046875 135.257812 234.253906 133.042969 238.992188 C 122.835938 241.90625 112.472656 245.546875 101.367188 249.023438 C 90.425781 252.445312 77.167969 253.09375 65.160156 254.039062 C 59.035156 254.523438 55.527344 255.246094 51.585938 256.046875 C 44.03125 257.578125 35.054688 256.644531 28.957031 261.0625 C 40.617188 264.644531 56.042969 260.476562 64.15625 267.582031 C 62.789062 271.738281 58.71875 273.195312 56.105469 276.109375 C 73.058594 273.296875 92.125 270.570312 109.410156 268.085938 C 114.457031 267.359375 119.367188 267.089844 124.5 266.582031 C 147.140625 264.320312 168.992188 260.589844 187.855469 256.046875 C 196.925781 253.863281 206.214844 252.707031 213.5 248.019531 C 212.84375 239.503906 214.023438 232.824219 217.019531 227.957031 C 219.222656 226.640625 223.019531 226.917969 224.566406 224.945312 C 218.972656 223 211.339844 218.875 204.953125 220.933594 M 179.304688 204.378906 C 175.203125 206.976562 171.863281 210.332031 172.265625 217.421875 C 182.683594 218.839844 192.695312 213.007812 204.953125 216.417969 C 205.949219 211.230469 202.765625 204.253906 195.898438 203.878906 C 195.785156 216.222656 179.796875 216.851562 179.304688 204.378906 M 237.136719 223.945312 C 239.414062 223.726562 244.679688 221.519531 247.191406 220.429688 C 248.535156 219.851562 250.3125 219.867188 251.214844 219.429688 C 264.398438 213.015625 268.601562 200.445312 258.757812 187.324219 C 246.199219 179.222656 228.542969 178.527344 214.003906 178.796875 C 201.5625 179.03125 186.265625 177.722656 172.265625 178.796875 C 157.007812 179.96875 146.3125 183.546875 134.050781 187.324219 C 130.035156 194.347656 122.199219 201.160156 123.996094 212.40625 C 124.703125 216.847656 127.578125 219.769531 131.035156 222.4375 C 139.484375 216.847656 156.839844 217.945312 169.246094 217.921875 C 168.984375 207.421875 175.050781 200.6875 184.335938 201.371094 C 183.460938 204.25 182.847656 207.1875 184.335938 209.898438 C 190.867188 213.023438 192.519531 206.089844 192.378906 201.871094 C 203.011719 197.789062 208.53125 209.21875 208.472656 217.421875 C 217.636719 217.671875 226.695312 224.933594 237.136719 223.945312 M 300.996094 152.714844 C 295.597656 150.039062 291.285156 146.863281 286.410156 142.679688 C 282.371094 139.210938 278.261719 133.902344 272.835938 131.648438 C 266.90625 129.183594 259.535156 131.417969 251.71875 130.140625 C 237.085938 127.75 233.527344 114.277344 222.550781 109.074219 C 215.957031 105.945312 200.773438 106.183594 192.882812 109.574219 C 187.65625 111.820312 182.847656 119.34375 176.792969 122.617188 C 171.636719 125.40625 164.289062 127.175781 158.1875 127.636719 C 152.492188 128.0625 145.6875 126.671875 140.585938 129.140625 C 138.425781 130.183594 136.230469 133.542969 134.050781 135.660156 C 131.8125 137.835938 129.6875 140.160156 127.515625 142.179688 C 123.542969 145.871094 116.390625 151.277344 115.445312 156.730469 C 114.390625 162.824219 117.230469 170.058594 115.445312 175.789062 C 112.902344 186.429688 93.046875 191.953125 93.320312 202.375 C 93.421875 206.300781 98.59375 210.402344 100.863281 214.414062 C 105.203125 222.074219 104.222656 231.316406 107.902344 238.488281 C 111.953125 240.675781 121.472656 238.015625 127.011719 236.984375 C 127.796875 234.085938 131.351562 230.929688 129.523438 227.453125 C 128.3125 225.144531 124.304688 225.164062 121.984375 222.9375 C 115.058594 216.316406 117.132812 204.402344 120.976562 195.351562 C 125.691406 187.804688 133.183594 185.71875 142.597656 182.808594 C 146.007812 181.757812 149.277344 179.601562 152.65625 178.796875 C 159.449219 177.183594 168.160156 176.5625 175.285156 176.289062 C 204.175781 175.191406 237.886719 174.976562 260.265625 183.8125 C 265.328125 191.582031 272.894531 195.453125 271.328125 207.890625 C 269.953125 218.789062 257.699219 225.230469 248.199219 226.953125 C 242.71875 227.945312 232.683594 229.542969 227.078125 229.960938 C 224.097656 230.1875 220.351562 229.160156 218.527344 230.464844 C 215.886719 232.351562 215.867188 239.636719 216.519531 242.5 C 248.457031 237.269531 296.175781 240.679688 329.152344 230.464844 C 327.019531 203.046875 312.984375 175.234375 300.996094 152.714844 M 41.527344 284.136719 C 42.515625 277.097656 49.429688 275.964844 52.089844 270.59375 C 39.40625 269.363281 25.792969 269.066406 18.394531 262.566406 C 22.789062 254.25 31.460938 252.238281 43.035156 250.527344 C 59.449219 248.105469 80.863281 246.355469 96.839844 243.507812 C 98.628906 238.152344 98.449219 228.769531 95.832031 221.433594 C 91.378906 208.925781 79.929688 205.753906 89.296875 193.34375 C 94.574219 186.363281 104.050781 181.804688 107.902344 174.785156 C 108.246094 167.792969 108.421875 161.90625 107.402344 155.722656 C 111.707031 146.75 119.605469 139.605469 127.011719 132.148438 C 129.742188 129.402344 133.414062 124.964844 136.0625 123.621094 C 139.316406 121.972656 143.832031 123.246094 146.117188 119.609375 C 156.460938 119.699219 165.714844 121.285156 172.769531 117.097656 C 175.65625 115.390625 176.632812 112.484375 178.804688 110.578125 C 182.144531 107.644531 187.253906 104.066406 191.378906 102.554688 C 200.179688 99.328125 220.261719 99.242188 228.082031 104.558594 C 229.175781 105.304688 230.371094 107.066406 231.605469 108.070312 C 233.019531 109.226562 234.4375 109.992188 235.628906 111.082031 C 240.417969 115.476562 243.75 120.847656 251.214844 123.621094 C 270.585938 121.871094 280.253906 127.984375 291.441406 138.167969 C 300.195312 146.140625 312.640625 150.445312 318.09375 159.738281 C 323.820312 169.5 323.652344 181.558594 327.648438 191.839844 C 330.109375 198.183594 334.058594 204.074219 335.691406 210.902344 C 336.289062 213.390625 335.648438 216.519531 336.195312 218.925781 C 337.035156 222.617188 339.398438 229.1875 336.195312 233.472656 C 334.144531 236.21875 331.070312 235.488281 327.144531 236.484375 C 324.226562 237.222656 323.128906 237.640625 318.59375 238.488281 C 317.582031 238.679688 316.882812 239.878906 316.082031 239.996094 C 312.085938 240.554688 307.195312 239.855469 302.503906 240.496094 C 295.328125 241.476562 290.324219 242.289062 280.882812 243.003906 C 275.144531 243.4375 269.195312 245.308594 263.785156 245.511719 C 259.011719 245.695312 254.46875 244.789062 249.707031 245.011719 C 245.332031 245.214844 240.839844 245.167969 236.125 245.511719 C 230.71875 245.90625 223.460938 245.933594 222.050781 251.027344 C 218.753906 250.023438 216.882812 253.453125 214.507812 254.542969 C 207.082031 257.929688 196.582031 259.429688 186.347656 262.066406 C 163.625 267.917969 136.265625 270.164062 110.921875 273.601562 C 91.886719 276.1875 70.59375 278.285156 54.097656 282.632812 C 49.875 283.746094 46.613281 287.625 41.527344 284.136719 " fill-opacity="1" fill-rule="evenodd"/></g><path fill="#e2ded7" d="M 286.917969 212.40625 C 288.125 212.199219 288.007812 213.324219 289.433594 212.910156 C 289.449219 211.382812 289.722656 209.605469 287.925781 209.898438 C 287.703125 210.851562 286.839844 211.160156 286.917969 212.40625 M 283.398438 208.894531 C 286.039062 209.1875 286.59375 207.402344 286.917969 205.382812 C 286.332031 204.960938 285.570312 204.722656 284.398438 204.882812 C 284.730469 206.878906 283.070312 206.898438 283.398438 208.894531 M 126.003906 174.285156 C 129.527344 174.8125 129.820312 170.183594 126.507812 170.269531 C 126.242188 172.039062 125.035156 172.511719 126.003906 174.285156 M 126.003906 165.257812 C 126.597656 165.832031 127.785156 165.824219 129.023438 165.757812 C 130.082031 162.527344 125.515625 162.507812 126.003906 165.257812 M 276.859375 159.738281 C 276.917969 161.015625 276.953125 162.316406 278.371094 162.246094 C 280.011719 161.519531 279.636719 161.125 279.375 159.234375 C 278.207031 159.078125 277.445312 159.316406 276.859375 159.738281 M 270.324219 158.734375 C 269.992188 161.570312 272.101562 164.082031 273.839844 163.246094 C 274.5 160.589844 272.386719 160.6875 272.835938 158.234375 C 271.667969 158.070312 270.910156 158.3125 270.324219 158.734375 M 168.746094 146.695312 C 159.121094 138.980469 142.25 151.699219 145.117188 163.75 C 148.464844 163.691406 147.21875 160.164062 148.128906 158.234375 C 150.558594 153.09375 157.054688 146.882812 163.214844 147.699219 C 169.078125 148.476562 168.054688 156.136719 172.769531 158.734375 C 175.550781 156.121094 171.582031 148.964844 168.746094 146.695312 M 224.0625 144.1875 C 221.011719 144.046875 218.011719 143.867188 215.515625 143.183594 C 211.269531 145.800781 202.554688 154.5 207.972656 158.734375 C 210.222656 151.753906 215.132812 142.976562 223.554688 147.699219 C 227.9375 150.152344 227.054688 157.070312 230.597656 161.242188 C 234.675781 155.003906 228.195312 147.15625 224.0625 144.1875 M 203.949219 141.175781 C 205.316406 142.316406 209.613281 144.78125 209.980469 141.175781 C 208.585938 140.714844 204.8125 139.050781 203.949219 141.175781 M 204.449219 136.164062 C 205.816406 137.160156 209.109375 136.722656 208.972656 134.65625 C 207.695312 133.75 204.40625 134.183594 204.449219 136.164062 M 329.152344 230.464844 C 296.175781 240.679688 248.457031 237.269531 216.519531 242.5 C 215.867188 239.636719 215.886719 232.351562 218.527344 230.464844 C 220.351562 229.160156 224.097656 230.1875 227.078125 229.960938 C 232.683594 229.542969 242.71875 227.945312 248.199219 226.953125 C 257.699219 225.230469 269.953125 218.789062 271.328125 207.890625 C 272.894531 195.453125 265.328125 191.582031 260.265625 183.8125 C 237.886719 174.976562 204.175781 175.191406 175.285156 176.289062 C 168.160156 176.5625 159.449219 177.183594 152.65625 178.796875 C 149.277344 179.601562 146.007812 181.757812 142.597656 182.8125 C 133.183594 185.71875 125.691406 187.804688 120.976562 195.351562 C 117.132812 204.402344 115.058594 216.316406 121.984375 222.9375 C 124.304688 225.164062 128.3125 225.144531 129.523438 227.453125 C 131.351562 230.929688 127.796875 234.085938 127.011719 236.984375 C 121.472656 238.015625 111.953125 240.675781 107.902344 238.488281 C 104.222656 231.316406 105.203125 222.074219 100.863281 214.414062 C 98.59375 210.402344 93.421875 206.300781 93.320312 202.375 C 93.046875 191.953125 112.902344 186.429688 115.445312 175.789062 C 117.230469 170.058594 114.390625 162.824219 115.445312 156.730469 C 116.386719 151.277344 123.542969 145.871094 127.515625 142.179688 C 129.6875 140.160156 131.8125 137.835938 134.050781 135.660156 C 136.230469 133.542969 138.425781 130.183594 140.585938 129.140625 C 145.6875 126.671875 152.496094 128.0625 158.1875 127.636719 C 164.289062 127.175781 171.636719 125.40625 176.792969 122.617188 C 182.84375 119.34375 187.65625 111.820312 192.882812 109.574219 C 200.773438 106.183594 215.957031 105.945312 222.550781 109.074219 C 233.527344 114.277344 237.085938 127.75 251.71875 130.140625 C 259.535156 131.417969 266.90625 129.183594 272.835938 131.648438 C 278.261719 133.902344 282.371094 139.210938 286.410156 142.679688 C 291.285156 146.863281 295.597656 150.039062 300.996094 152.714844 C 312.984375 175.234375 327.019531 203.046875 329.152344 230.464844 " fill-opacity="1" fill-rule="evenodd"/><path fill="#000000" d="M 208.972656 134.65625 C 209.109375 136.722656 205.816406 137.160156 204.449219 136.164062 C 204.40625 134.183594 207.695312 133.75 208.972656 134.65625 " fill-opacity="1" fill-rule="evenodd"/><path fill="#000000" d="M 209.980469 141.175781 C 209.613281 144.78125 205.316406 142.3125 203.949219 141.175781 C 204.8125 139.050781 208.585938 140.714844 209.980469 141.175781 " fill-opacity="1" fill-rule="evenodd"/><path fill="#000000" d="M 230.597656 161.242188 C 227.054688 157.070312 227.9375 150.152344 223.554688 147.699219 C 215.132812 142.976562 210.222656 151.757812 207.972656 158.734375 C 202.554688 154.5 211.269531 145.800781 215.515625 143.183594 C 218.011719 143.867188 221.011719 144.050781 224.0625 144.1875 C 228.195312 147.15625 234.675781 155.003906 230.597656 161.242188 " fill-opacity="1" fill-rule="evenodd"/><path fill="#000000" d="M 172.769531 158.734375 C 168.050781 156.132812 169.078125 148.476562 163.214844 147.699219 C 157.050781 146.882812 150.558594 153.097656 148.128906 158.234375 C 147.21875 160.164062 148.464844 163.691406 145.117188 163.75 C 142.25 151.699219 159.125 138.980469 168.746094 146.695312 C 171.578125 148.964844 175.546875 156.121094 172.769531 158.734375 " fill-opacity="1" fill-rule="evenodd"/><path fill="#000000" d="M 272.835938 158.234375 C 272.386719 160.6875 274.5 160.589844 273.839844 163.25 C 272.101562 164.082031 269.992188 161.570312 270.324219 158.734375 C 270.910156 158.3125 271.667969 158.070312 272.835938 158.234375 " fill-opacity="1" fill-rule="evenodd"/><path fill="#000000" d="M 279.375 159.234375 C 279.636719 161.125 280.011719 161.519531 278.371094 162.246094 C 276.953125 162.316406 276.914062 161.015625 276.859375 159.734375 C 277.445312 159.316406 278.207031 159.074219 279.375 159.234375 " fill-opacity="1" fill-rule="evenodd"/><path fill="#000000" d="M 129.023438 165.757812 C 127.785156 165.824219 126.597656 165.832031 126.003906 165.253906 C 125.515625 162.507812 130.082031 162.527344 129.023438 165.757812 " fill-opacity="1" fill-rule="evenodd"/><path fill="#000000" d="M 126.507812 170.269531 C 129.820312 170.183594 129.527344 174.8125 126.003906 174.285156 C 125.035156 172.511719 126.242188 172.039062 126.507812 170.269531 " fill-opacity="1" fill-rule="evenodd"/><path fill="#aa8c80" d="M 219.53125 206.890625 C 219.621094 206.304688 220.328125 206.34375 221.039062 206.386719 C 221.097656 204.492188 220.058594 203.6875 218.527344 203.378906 C 218.617188 204.796875 218.097656 206.816406 219.53125 206.890625 M 164.726562 203.378906 C 165.3125 203.460938 165.269531 204.171875 165.230469 204.882812 C 167.101562 205.082031 168.179688 204.480469 168.246094 202.878906 C 167.148438 202.609375 164.992188 201.660156 164.726562 203.378906 M 225.566406 204.882812 C 225.496094 202.949219 224.4375 201.996094 223.054688 201.371094 C 222.210938 202.578125 223.070312 205.441406 225.566406 204.882812 M 161.710938 198.863281 C 164.003906 198.507812 167.941406 195.476562 165.726562 193.847656 C 164.453125 195.582031 161.292969 195.4375 161.710938 198.863281 M 208.472656 217.421875 C 208.53125 209.21875 203.011719 197.789062 192.378906 201.871094 C 192.519531 206.089844 190.867188 213.023438 184.335938 209.898438 C 182.84375 207.1875 183.460938 204.25 184.335938 201.371094 C 175.050781 200.6875 168.984375 207.421875 169.246094 217.921875 C 156.839844 217.945312 139.484375 216.847656 131.035156 222.4375 C 127.578125 219.769531 124.703125 216.847656 123.996094 212.40625 C 122.199219 201.160156 130.035156 194.347656 134.050781 187.324219 C 146.3125 183.546875 157.007812 179.96875 172.265625 178.796875 C 186.265625 177.726562 201.5625 179.03125 214.003906 178.796875 C 228.542969 178.527344 246.199219 179.222656 258.757812 187.324219 C 268.601562 200.445312 264.398438 213.015625 251.214844 219.429688 C 250.3125 219.867188 248.535156 219.851562 247.191406 220.429688 C 244.679688 221.519531 239.414062 223.726562 237.136719 223.945312 C 226.691406 224.933594 217.636719 217.671875 208.472656 217.421875 " fill-opacity="1" fill-rule="evenodd"/><path fill="#000000" d="M 165.726562 193.847656 C 167.941406 195.476562 164.003906 198.507812 161.710938 198.863281 C 161.292969 195.4375 164.453125 195.582031 165.726562 193.847656 " fill-opacity="1" fill-rule="evenodd"/><path fill="#000000" d="M 223.054688 201.371094 C 224.4375 201.996094 225.496094 202.949219 225.566406 204.882812 C 223.070312 205.441406 222.214844 202.578125 223.054688 201.371094 " fill-opacity="1" fill-rule="evenodd"/><path fill="#000000" d="M 168.246094 202.878906 C 168.179688 204.480469 167.101562 205.082031 165.226562 204.882812 C 165.269531 204.171875 165.3125 203.460938 164.726562 203.378906 C 164.992188 201.660156 167.148438 202.609375 168.246094 202.878906 " fill-opacity="1" fill-rule="evenodd"/><path fill="#000000" d="M 218.527344 203.378906 C 220.058594 203.6875 221.097656 204.492188 221.039062 206.386719 C 220.328125 206.34375 219.621094 206.304688 219.53125 206.890625 C 218.097656 206.816406 218.617188 204.796875 218.527344 203.378906 " fill-opacity="1" fill-rule="evenodd"/><path fill="#d86161" d="M 195.898438 203.878906 C 202.765625 204.253906 205.949219 211.230469 204.953125 216.417969 C 192.695312 213.007812 182.683594 218.839844 172.265625 217.421875 C 171.863281 210.332031 175.203125 206.976562 179.304688 204.378906 C 179.796875 216.851562 195.785156 216.222656 195.898438 203.878906 " fill-opacity="1" fill-rule="evenodd"/><path fill="#000000" d="M 284.398438 204.882812 C 285.570312 204.722656 286.332031 204.960938 286.917969 205.382812 C 286.59375 207.402344 286.039062 209.1875 283.398438 208.894531 C 283.070312 206.898438 284.730469 206.878906 284.398438 204.882812 " fill-opacity="1" fill-rule="evenodd"/><path fill="#000000" d="M 287.925781 209.898438 C 289.722656 209.605469 289.449219 211.382812 289.433594 212.910156 C 288.007812 213.324219 288.125 212.199219 286.917969 212.40625 C 286.839844 211.160156 287.703125 210.851562 287.925781 209.898438 " fill-opacity="1" fill-rule="evenodd"/><path fill="#ff9999" d="M 190.871094 245.511719 C 192.859375 246.738281 195.140625 244.605469 194.898438 242 C 192.359375 241.976562 191.234375 243.363281 190.871094 245.511719 M 187.855469 241 C 190.515625 240.976562 192.503906 240.28125 192.882812 237.988281 C 190.648438 236.660156 187.230469 237.863281 187.855469 241 M 224.566406 224.945312 C 223.019531 226.917969 219.222656 226.640625 217.019531 227.957031 C 214.023438 232.824219 212.84375 239.503906 213.5 248.019531 C 206.214844 252.707031 196.925781 253.863281 187.855469 256.046875 C 168.992188 260.589844 147.140625 264.320312 124.5 266.582031 C 119.367188 267.089844 114.457031 267.359375 109.410156 268.085938 C 92.128906 270.570312 73.058594 273.296875 56.105469 276.109375 C 58.71875 273.195312 62.789062 271.738281 64.15625 267.582031 C 56.039062 260.476562 40.617188 264.644531 28.957031 261.0625 C 35.058594 256.644531 44.03125 257.578125 51.585938 256.046875 C 55.527344 255.246094 59.035156 254.523438 65.160156 254.039062 C 77.167969 253.09375 90.421875 252.445312 101.367188 249.023438 C 112.472656 245.546875 122.839844 241.90625 133.042969 238.992188 C 135.257812 234.253906 131.9375 227.046875 135.058594 223.441406 C 147.136719 219.21875 161.011719 219.957031 175.285156 220.933594 C 171.984375 225.164062 171.855469 232.199219 170.257812 238.488281 C 169.636719 240.914062 170.351562 243.347656 169.753906 244.507812 C 167.066406 249.726562 149.167969 251.84375 141.59375 253.039062 C 122.945312 255.980469 105.816406 256.789062 90.808594 260.558594 C 93.03125 264.738281 99.507812 260.476562 103.878906 260.058594 C 119.234375 258.601562 136.511719 256.464844 151.652344 253.539062 C 157.648438 252.375 166.289062 250.253906 171.261719 247.519531 C 173.859375 241.078125 172.304688 231.398438 175.285156 224.445312 C 181.003906 218.5 197.320312 214.957031 204.953125 220.933594 C 211.339844 218.875 218.972656 223 224.566406 224.945312 " fill-opacity="1" fill-rule="evenodd"/><path fill="#000000" d="M 192.882812 237.988281 C 192.503906 240.28125 190.515625 240.976562 187.855469 241 C 187.230469 237.863281 190.648438 236.660156 192.882812 237.988281 " fill-opacity="1" fill-rule="evenodd"/><path fill="#000000" d="M 194.898438 242 C 195.140625 244.605469 192.859375 246.738281 190.871094 245.511719 C 191.234375 243.363281 192.359375 241.976562 194.898438 242 " fill-opacity="1" fill-rule="evenodd"/><g clip-path="url(#72b70fab70)"><g clip-path="url(#e84d96216a)"><path fill="#e3dfd8" d="M 138.601562 136.425781 L 181.351562 136.425781 L 181.351562 184.425781 L 138.601562 184.425781 Z M 138.601562 136.425781 " fill-opacity="1" fill-rule="nonzero"/></g></g><g clip-path="url(#a17a789622)"><g clip-path="url(#eb135c7bc4)"><path fill="#e3dfd8" d="M 196.648438 135.074219 L 240.898438 135.074219 L 240.898438 170.324219 L 196.648438 170.324219 Z M 196.648438 135.074219 " fill-opacity="1" fill-rule="nonzero"/></g></g><g clip-path="url(#10f0589d35)"><g clip-path="url(#1672f64785)"><path fill="#000000" d="M 142.5 141.75 L 171.75 141.75 L 171.75 176.25 L 142.5 176.25 Z M 142.5 141.75 " fill-opacity="1" fill-rule="nonzero"/></g></g><g clip-path="url(#b628746659)"><g clip-path="url(#d97be057c8)"><path fill="#000000" d="M 138.226562 146.699219 L 177.226562 146.699219 L 177.226562 170.699219 L 138.226562 170.699219 Z M 138.226562 146.699219 " fill-opacity="1" fill-rule="nonzero"/></g></g><g clip-path="url(#c31cde5cab)"><g clip-path="url(#73c50a1339)"><path fill="#000000" d="M 207.007812 140.398438 L 246.007812 140.398438 L 246.007812 164.398438 L 207.007812 164.398438 Z M 207.007812 140.398438 " fill-opacity="1" fill-rule="nonzero"/></g></g><g clip-path="url(#d60d9d7b98)"><g clip-path="url(#64420694d0)"><g clip-path="url(#bc7e067c71)"><path fill="#000000" d="M 239.144531 133.546875 L 237.835938 172.523438 L 213.847656 171.71875 L 215.160156 132.738281 Z M 239.144531 133.546875 " fill-opacity="1" fill-rule="nonzero"/></g></g></g></svg>