<svg xmlns="http://www.w3.org/2000/svg" xmlns:xlink="http://www.w3.org/1999/xlink" width="500" zoomAndPan="magnify" viewBox="0 0 375 374.999991" height="500" preserveAspectRatio="xMidYMid meet" version="1.0"><defs><clipPath id="8b795421b0"><path d="M 42.011719 99.949219 L 332.765625 99.949219 L 332.765625 274.699219 L 42.011719 274.699219 Z M 42.011719 99.949219 " clip-rule="nonzero"/></clipPath></defs><g clip-path="url(#8b795421b0)"><path fill="#000000" d="M 217.191406 120.464844 C 213.726562 114.664062 207.703125 108.761719 200.363281 107.578125 C 196.367188 106.9375 191.570312 107.90625 186.898438 108.140625 C 180.703125 108.441406 171.144531 109.367188 162.773438 110.378906 C 157.859375 110.972656 153.035156 112.640625 149.875 112.621094 C 142.152344 112.574219 138.769531 108.707031 131.359375 110.378906 C 127.726562 111.199219 124.679688 115.464844 121.261719 115.984375 C 107.207031 140.421875 98.492188 170.195312 87.601562 197.792969 C 78.882812 196.511719 64.21875 201.875 59.550781 206.757812 C 56.695312 209.75 52.519531 218.207031 51.136719 224.132812 C 47.367188 240.214844 54.617188 254.519531 63.476562 258.308594 C 68.425781 260.429688 73.570312 258.914062 77.5 262.792969 C 94.214844 264.441406 111.894531 267.519531 131.359375 265.035156 C 138.320312 264.144531 146.5 262.824219 152.675781 262.234375 C 158.128906 261.710938 164.335938 261.816406 169.503906 262.234375 C 197.066406 264.460938 223.65625 268.644531 246.371094 268.398438 C 268.636719 268.160156 283.71875 264.257812 296.855469 254.390625 C 300.714844 251.488281 303.796875 247.605469 307.515625 244.859375 C 311.675781 241.792969 315.695312 239.253906 318.738281 235.335938 C 323.980469 228.582031 327.933594 204.3125 321.539062 197.792969 C 309.28125 191.171875 296.152344 185.425781 287.316406 175.378906 C 282.773438 159.929688 273.125 149.585938 261.511719 141.199219 C 260.554688 137.484375 258.914062 134.453125 257.585938 131.113281 C 244.46875 127.214844 226.851562 127.816406 217.191406 120.464844 M 269.925781 139.519531 C 275.789062 145.226562 281.730469 147.144531 286.195312 152.964844 C 289.421875 157.175781 289.550781 163.136719 292.929688 168.097656 C 294.964844 171.082031 298.6875 174.019531 301.90625 177.0625 C 307.898438 182.726562 311.6875 185.785156 319.292969 189.949219 C 325.195312 193.175781 330.460938 194.808594 332.761719 202.273438 C 332.855469 215.503906 331.4375 228.300781 327.152344 238.699219 C 320.257812 244.277344 312.386719 249.996094 304.710938 256.632812 C 296.714844 263.539062 280.578125 272.132812 267.125 274 C 258 275.269531 247.71875 274.5625 236.265625 274 C 206.679688 272.5625 173.664062 267.652344 145.941406 270.078125 C 120.804688 272.277344 93.921875 273.957031 72.453125 268.398438 C 69.457031 267.621094 67.589844 265.773438 65.160156 265.035156 C 59.765625 263.398438 56.132812 263.996094 52.816406 261.113281 C 47.710938 256.675781 45.714844 249.390625 42.722656 244.300781 C 39.496094 223.488281 47.792969 210.023438 57.304688 198.914062 C 65.386719 196.15625 74.710938 194.632812 81.988281 191.070312 C 84.746094 180 90.8125 173.230469 91.527344 161.371094 C 97.828125 154.460938 98.808594 139.242188 105.550781 131.113281 C 105.8125 125.953125 108.859375 123.585938 109.476562 118.785156 C 113.515625 114.597656 117.417969 110.273438 121.261719 105.898438 C 125.566406 104.910156 127.785156 103.328125 131.917969 103.097656 C 137.164062 102.796875 142.386719 105.722656 148.1875 105.898438 C 152.488281 106.023438 156.867188 103.542969 161.652344 103.097656 C 163.820312 102.890625 166.097656 103.71875 168.386719 103.65625 C 179.492188 103.367188 190.015625 98.660156 199.800781 100.292969 C 202.949219 100.820312 216.292969 107.597656 218.875 109.820312 C 223.296875 113.621094 225.199219 119.765625 232.902344 121.027344 C 236.925781 121.683594 242.59375 121.589844 248.050781 122.148438 C 253.023438 122.65625 259.535156 122.449219 261.511719 123.828125 C 266.148438 127.066406 266.5625 135.878906 269.925781 139.519531 " fill-opacity="1" fill-rule="evenodd"/></g><path fill="#e2ded7" d="M 139.773438 226.371094 C 140.015625 225.304688 140.980469 224.960938 140.898438 223.570312 C 138.882812 223.710938 138.839844 221.886719 136.96875 221.886719 C 134.628906 223.710938 137.003906 226.40625 139.773438 226.371094 M 270.488281 225.808594 C 273.019531 225.347656 273.191406 222.535156 274.421875 220.765625 C 273.417969 220.269531 272.992188 219.203125 271.050781 219.648438 C 270.683594 221.929688 268.105469 223.976562 270.488281 225.808594 M 150.992188 221.886719 C 150.539062 219.917969 148.941406 219.078125 146.503906 219.085938 C 146.433594 222.210938 149.1875 223.648438 150.992188 221.886719 M 264.878906 224.132812 C 264.972656 223.480469 265.761719 223.523438 266.5625 223.570312 C 266.148438 220.730469 267.953125 220.105469 268.804688 218.527344 C 266.265625 212.101562 260.554688 222.277344 264.878906 224.132812 M 293.492188 228.054688 C 294.871094 228.125 296.191406 228.136719 296.855469 227.492188 C 295.023438 222.484375 295.667969 214.273438 299.101562 211.238281 C 300.625 210.152344 304.492188 211.398438 304.148438 208.441406 C 293.195312 205.019531 291.578125 218.621094 293.492188 228.054688 M 258.144531 186.027344 C 218.230469 195.941406 153.019531 203.027344 113.964844 193.308594 C 114.710938 190.574219 118.148438 189.234375 115.089844 187.148438 C 111.488281 186.539062 111.621094 189.65625 111.164062 192.191406 C 108.359375 194.320312 104.445312 198.089844 105.550781 202.273438 C 109.386719 203.304688 108.132812 199.25 110.039062 198.351562 C 111.101562 198.972656 112.691406 199.070312 113.964844 199.472656 C 114.714844 212.832031 131.457031 210.015625 134.164062 200.597656 C 165.351562 201.65625 201.769531 200.160156 235.707031 194.433594 C 234.59375 203.894531 246.648438 205.210938 252.539062 201.15625 C 252.96875 198.597656 254.386719 197.027344 255.902344 195.554688 C 256.332031 192.574219 255.71875 191.027344 255.902344 189.949219 C 264.960938 183.042969 265.160156 199.03125 272.167969 195.554688 C 269.042969 189.335938 264.183594 184.855469 259.828125 179.863281 L 258.707031 179.863281 C 257.144531 181.773438 259.511719 184.121094 258.144531 186.027344 M 142.578125 165.292969 C 141.640625 172.65625 145.945312 178.71875 148.75 183.222656 C 156.738281 187.417969 165.203125 183.160156 170.066406 179.300781 C 177.765625 169.308594 172.507812 158.15625 165.015625 153.527344 C 159.574219 150.15625 151.46875 154.167969 146.503906 155.207031 C 146.289062 159.144531 143.085938 161.34375 142.578125 165.292969 M 226.167969 170.335938 C 244.085938 181.914062 259.359375 161.34375 246.925781 146.800781 C 228.824219 139.1875 216.023438 157.148438 226.167969 170.335938 M 136.96875 133.351562 C 138.601562 126.410156 134.140625 122.492188 128.554688 118.785156 C 128.324219 119.863281 126.378906 119.226562 126.871094 121.027344 C 129.921875 124.328125 135.230469 125.378906 134.164062 132.792969 L 132.476562 132.792969 C 131.59375 139.191406 127.460938 142.347656 125.1875 147.363281 C 126.328125 148.085938 126.207031 150.082031 128.554688 149.605469 C 128.265625 143.296875 135.667969 138.878906 136.96875 133.351562 M 257.585938 131.113281 C 258.914062 134.453125 260.554688 137.484375 261.511719 141.195312 C 273.125 149.585938 282.773438 159.929688 287.316406 175.378906 C 296.152344 185.425781 309.28125 191.171875 321.539062 197.792969 C 327.933594 204.3125 323.980469 228.582031 318.738281 235.335938 C 315.695312 239.253906 311.675781 241.792969 307.515625 244.859375 C 303.796875 247.609375 300.714844 251.488281 296.855469 254.386719 C 283.71875 264.257812 268.636719 268.160156 246.371094 268.398438 C 223.65625 268.644531 197.066406 264.460938 169.503906 262.234375 C 164.335938 261.816406 158.128906 261.710938 152.675781 262.234375 C 146.5 262.824219 138.320312 264.144531 131.359375 265.035156 C 111.894531 267.519531 94.214844 264.441406 77.5 262.792969 C 73.570312 258.914062 68.425781 260.429688 63.476562 258.308594 C 54.621094 254.519531 47.367188 240.214844 51.136719 224.132812 C 52.519531 218.207031 56.695312 209.75 59.550781 206.757812 C 64.21875 201.875 78.886719 196.511719 87.601562 197.792969 C 98.492188 170.195312 107.207031 140.421875 121.261719 115.984375 C 124.679688 115.464844 127.726562 111.199219 131.359375 110.378906 C 138.769531 108.707031 142.152344 112.574219 149.875 112.625 C 153.035156 112.640625 157.859375 110.972656 162.777344 110.378906 C 171.144531 109.367188 180.703125 108.441406 186.898438 108.140625 C 191.570312 107.90625 196.367188 106.9375 200.363281 107.578125 C 207.703125 108.761719 213.726562 114.664062 217.191406 120.464844 C 226.851562 127.816406 244.46875 127.214844 257.585938 131.113281 " fill-opacity="1" fill-rule="evenodd"/><path fill="#000000" d="M 128.554688 149.605469 C 126.207031 150.078125 126.328125 148.085938 125.1875 147.363281 C 127.460938 142.347656 131.59375 139.191406 132.480469 132.792969 L 134.164062 132.792969 C 135.230469 125.378906 129.921875 124.328125 126.871094 121.027344 C 126.378906 119.226562 128.324219 119.863281 128.554688 118.785156 C 134.140625 122.492188 138.601562 126.410156 136.964844 133.351562 C 135.671875 138.878906 128.265625 143.296875 128.554688 149.605469 " fill-opacity="1" fill-rule="evenodd"/><path fill="#000000" d="M 246.925781 154.089844 C 239.714844 141.855469 219.65625 152.796875 227.851562 166.976562 C 238.515625 173.789062 251.425781 166.570312 246.925781 154.089844 M 246.925781 146.800781 C 259.359375 161.34375 244.085938 181.914062 226.167969 170.335938 C 216.023438 157.148438 228.824219 139.183594 246.925781 146.800781 " fill-opacity="1" fill-rule="evenodd"/><path fill="#ffffff" d="M 233.464844 157.449219 C 234.253906 159.273438 235.421875 160.722656 238.511719 160.25 C 239.046875 159.105469 239.652344 158.03125 240.191406 156.886719 C 238.878906 156.710938 238.9375 155.15625 237.953125 154.648438 C 236.542969 155.664062 234.332031 155.890625 233.464844 157.449219 M 227.851562 166.976562 C 219.65625 152.796875 239.714844 141.855469 246.925781 154.089844 C 251.421875 166.570312 238.515625 173.789062 227.851562 166.976562 " fill-opacity="1" fill-rule="evenodd"/><path fill="#000000" d="M 145.941406 165.292969 C 145.207031 169.949219 147.777344 172.820312 148.75 177.621094 C 149.851562 178.574219 151.554688 178.929688 152.113281 180.421875 C 163.464844 181.78125 166.117188 176.527344 170.628906 170.335938 C 172.671875 155.28125 148.46875 149.328125 145.941406 165.292969 M 146.503906 155.207031 C 151.464844 154.164062 159.574219 150.15625 165.015625 153.527344 C 172.507812 158.15625 177.765625 169.308594 170.066406 179.300781 C 165.203125 183.160156 156.738281 187.417969 148.75 183.222656 C 145.941406 178.71875 141.640625 172.65625 142.578125 165.292969 C 143.085938 161.34375 146.289062 159.144531 146.503906 155.207031 " fill-opacity="1" fill-rule="evenodd"/><path fill="#000000" d="M 237.953125 154.648438 C 238.9375 155.15625 238.878906 156.710938 240.191406 156.886719 C 239.65625 158.03125 239.046875 159.105469 238.511719 160.25 C 235.421875 160.722656 234.253906 159.273438 233.464844 157.449219 C 234.332031 155.890625 236.542969 155.664062 237.953125 154.648438 " fill-opacity="1" fill-rule="evenodd"/><path fill="#ffffff" d="M 154.363281 164.175781 C 154.1875 166.214844 154.449219 167.820312 154.921875 169.214844 C 157.574219 169.625 158.605469 168.417969 159.96875 167.535156 C 160.296875 165.34375 159.484375 164.28125 158.847656 163.054688 C 157.113281 163.191406 155.675781 163.617188 154.363281 164.175781 M 170.628906 170.335938 C 166.117188 176.527344 163.464844 181.78125 152.113281 180.421875 C 151.554688 178.929688 149.851562 178.574219 148.75 177.621094 C 147.777344 172.820312 145.207031 169.949219 145.941406 165.292969 C 148.464844 149.328125 172.671875 155.28125 170.628906 170.335938 " fill-opacity="1" fill-rule="evenodd"/><path fill="#000000" d="M 158.847656 163.054688 C 159.484375 164.28125 160.296875 165.34375 159.96875 167.535156 C 158.605469 168.417969 157.574219 169.625 154.921875 169.214844 C 154.449219 167.820312 154.1875 166.214844 154.363281 164.175781 C 155.675781 163.617188 157.113281 163.191406 158.847656 163.054688 " fill-opacity="1" fill-rule="evenodd"/><path fill="#000000" d="M 117.335938 199.472656 C 117.003906 206.796875 129.550781 206.714844 129.113281 199.472656 C 126.261719 199.792969 120.660156 196.851562 117.335938 199.472656 M 239.074219 193.308594 C 239.746094 200.347656 245.015625 200.847656 249.730469 198.914062 C 250.351562 195.449219 251.578125 194.207031 251.414062 191.070312 C 247.023438 191.539062 243.691406 193.070312 239.074219 193.308594 M 258.707031 179.863281 L 259.828125 179.863281 C 264.183594 184.855469 269.042969 189.335938 272.167969 195.554688 C 265.160156 199.03125 264.960938 183.046875 255.902344 189.949219 C 255.71875 191.027344 256.332031 192.574219 255.902344 195.554688 C 254.386719 197.027344 252.96875 198.597656 252.539062 201.15625 C 246.648438 205.210938 234.59375 203.894531 235.707031 194.433594 C 201.769531 200.160156 165.351562 201.65625 134.164062 200.597656 C 131.457031 210.015625 114.714844 212.832031 113.964844 199.472656 C 112.691406 199.070312 111.101562 198.972656 110.039062 198.351562 C 108.132812 199.25 109.386719 203.304688 105.550781 202.273438 C 104.445312 198.089844 108.359375 194.320312 111.164062 192.191406 C 111.621094 189.65625 111.488281 186.535156 115.089844 187.148438 C 118.148438 189.234375 114.710938 190.574219 113.964844 193.308594 C 153.019531 203.027344 218.230469 195.941406 258.144531 186.027344 C 259.511719 184.121094 257.144531 181.773438 258.707031 179.863281 " fill-opacity="1" fill-rule="evenodd"/><path fill="#ffffff" d="M 251.414062 191.070312 C 251.578125 194.207031 250.351562 195.449219 249.730469 198.914062 C 245.015625 200.847656 239.746094 200.347656 239.074219 193.308594 C 243.691406 193.070312 247.023438 191.539062 251.414062 191.070312 " fill-opacity="1" fill-rule="evenodd"/><path fill="#ffffff" d="M 129.113281 199.472656 C 129.550781 206.714844 117.003906 206.796875 117.335938 199.472656 C 120.660156 196.851562 126.261719 199.792969 129.113281 199.472656 " fill-opacity="1" fill-rule="evenodd"/><path fill="#000000" d="M 304.148438 208.441406 C 304.492188 211.398438 300.625 210.152344 299.101562 211.238281 C 295.667969 214.273438 295.023438 222.484375 296.855469 227.492188 C 296.191406 228.136719 294.871094 228.125 293.492188 228.054688 C 291.578125 218.621094 293.195312 205.019531 304.148438 208.441406 " fill-opacity="1" fill-rule="evenodd"/><path fill="#000000" d="M 268.804688 218.527344 C 267.953125 220.105469 266.148438 220.730469 266.5625 223.570312 C 265.761719 223.519531 264.972656 223.480469 264.878906 224.132812 C 260.554688 222.277344 266.265625 212.101562 268.804688 218.527344 " fill-opacity="1" fill-rule="evenodd"/><path fill="#000000" d="M 146.503906 219.085938 C 148.941406 219.078125 150.539062 219.917969 150.992188 221.886719 C 149.1875 223.648438 146.433594 222.210938 146.503906 219.085938 " fill-opacity="1" fill-rule="evenodd"/><path fill="#000000" d="M 271.050781 219.648438 C 272.992188 219.203125 273.417969 220.269531 274.421875 220.765625 C 273.191406 222.535156 273.019531 225.347656 270.488281 225.808594 C 268.105469 223.976562 270.683594 221.929688 271.050781 219.648438 " fill-opacity="1" fill-rule="evenodd"/><path fill="#000000" d="M 136.964844 221.886719 C 138.835938 221.886719 138.886719 223.710938 140.898438 223.570312 C 140.980469 224.960938 140.015625 225.304688 139.773438 226.371094 C 137.003906 226.40625 134.628906 223.710938 136.964844 221.886719 " fill-opacity="1" fill-rule="evenodd"/></svg>