<svg xmlns="http://www.w3.org/2000/svg" xmlns:xlink="http://www.w3.org/1999/xlink" width="500" zoomAndPan="magnify" viewBox="0 0 375 374.999991" height="500" preserveAspectRatio="xMidYMid meet" version="1.0"><defs><clipPath id="0651d0cb07"><path d="M 49.691406 86.042969 L 324.941406 86.042969 L 324.941406 289.289062 L 49.691406 289.289062 Z M 49.691406 86.042969 " clip-rule="nonzero"/></clipPath></defs><g clip-path="url(#0651d0cb07)"><path fill="#000000" d="M 256.167969 146.632812 C 248.503906 141.40625 243.378906 132.570312 236.347656 126.167969 C 230.359375 120.71875 221.675781 116.363281 215.363281 110.96875 C 213.003906 108.949219 211.796875 105.984375 209.535156 103.953125 C 204.683594 99.585938 191.652344 89.558594 185.050781 92.257812 C 181.902344 93.546875 175.941406 93.742188 173.976562 94.597656 C 168.890625 96.816406 168.941406 103.507812 165.234375 108.628906 C 163.277344 111.324219 157.742188 115.519531 154.738281 116.816406 C 151.921875 118.03125 149.039062 117.679688 146.582031 118.566406 C 138.34375 121.542969 132.316406 125.050781 122.097656 127.925781 C 115.988281 133.164062 111.601562 139.996094 106.941406 146.632812 C 104.921875 149.511719 102.578125 151.761719 101.695312 154.230469 C 99.425781 160.597656 99.367188 169.34375 95.28125 176.449219 C 94.125 178.46875 91.46875 179.542969 89.453125 181.710938 C 87.484375 183.832031 86.601562 186.625 84.792969 188.140625 C 79.542969 192.542969 71.945312 195.15625 67.304688 200.421875 C 63.277344 204.988281 58.542969 213.355469 58.5625 219.128906 C 58.589844 227.105469 65.964844 234.847656 69.050781 242.515625 C 72.058594 249.984375 68.566406 258.082031 69.636719 265.316406 C 70.21875 269.25 73.105469 271.320312 74.300781 275.839844 C 81.9375 281.550781 91.625 279.058594 103.445312 277.59375 C 107.046875 277.148438 110.472656 277.664062 113.355469 277.007812 C 116.664062 276.257812 120.335938 274.390625 123.847656 274.085938 C 137.378906 272.914062 156.515625 269.566406 169.894531 271.160156 C 172.917969 271.523438 175.675781 272.804688 178.636719 272.917969 C 196.746094 273.597656 212.582031 267.613281 233.433594 267.65625 C 248.609375 267.6875 263.464844 268.179688 275.402344 268.824219 C 275.183594 268.8125 276.429688 268.839844 276.566406 268.824219 C 291.992188 266.832031 292.582031 256.917969 297.550781 244.269531 C 299.492188 239.328125 302.472656 232.53125 304.546875 228.484375 C 307.125 223.449219 316.652344 216.210938 315.621094 206.851562 C 314.328125 195.089844 300.691406 190.796875 296.96875 180.542969 C 294.734375 174.382812 297.472656 170.628906 296.96875 162.417969 C 283.003906 151.4375 270.136719 156.15625 256.167969 146.632812 M 264.324219 143.125 C 267.464844 143.484375 269.382812 145.070312 271.320312 146.632812 C 281.359375 148.441406 289.90625 149.800781 296.386719 153.0625 C 298.433594 154.09375 303.820312 157.917969 305.132812 160.664062 C 307.472656 165.574219 303.632812 171.0625 305.132812 177.621094 C 306.445312 183.363281 315.175781 188.234375 319.121094 193.988281 C 321.847656 197.972656 321.636719 201.671875 324.949219 204.511719 C 324.625 208.179688 324.304688 208.175781 324.949219 211.527344 C 322.871094 219.429688 316.429688 222.597656 312.710938 229.652344 C 302.488281 249.035156 301.996094 274.609375 272.488281 275.839844 C 270.347656 275.929688 268.253906 274.707031 266.074219 274.671875 C 261.96875 274.605469 258.117188 276.019531 255.003906 275.839844 C 244.734375 275.253906 235.59375 273.1875 224.6875 274.085938 C 207.804688 275.476562 191.273438 280.671875 174.558594 279.933594 C 170.84375 279.769531 167.449219 277.949219 164.066406 277.59375 C 157.871094 276.9375 151.042969 278.144531 144.246094 278.765625 C 137.292969 279.398438 129.394531 279.421875 122.675781 280.515625 C 117.042969 281.4375 111.492188 283.960938 105.777344 285.195312 C 100.210938 286.394531 94.5625 289.191406 89.453125 289.285156 C 82.132812 289.421875 68.597656 284.351562 65.558594 280.515625 C 64.242188 278.863281 61.074219 269.734375 60.894531 267.070312 C 60.46875 261.136719 63.804688 255.523438 62.640625 250.113281 C 61.390625 244.28125 56.113281 238.488281 53.316406 231.40625 C 51.675781 227.265625 49.101562 223.078125 49.8125 217.375 C 50.605469 211.085938 58.167969 199.15625 62.640625 195.160156 C 70.730469 187.929688 81.113281 183.800781 87.125 174.695312 C 91.179688 167.574219 90.925781 158.46875 94.121094 151.308594 C 95.269531 148.734375 98.371094 146.324219 100.527344 143.125 C 105.058594 136.410156 109.953125 127.390625 116.851562 123.246094 C 127.078125 117.09375 140.878906 117.519531 152.410156 110.96875 C 160.199219 105.332031 163.304688 94.996094 171.058594 89.335938 C 183.042969 83.582031 195.84375 85.886719 206.621094 92.257812 C 209.203125 93.785156 214.410156 96.132812 215.949219 97.523438 C 218.214844 99.578125 219.09375 103.054688 221.195312 105.121094 C 225.953125 109.804688 232.539062 113.457031 238.097656 117.984375 C 246.996094 125.230469 255.800781 134.90625 264.324219 143.125 " fill-opacity="1" fill-rule="evenodd"/></g><path fill="#e2ded7" d="M 105.777344 245.4375 C 108.6875 245.433594 111.097656 244.929688 111.605469 242.515625 C 109.449219 241.230469 105.957031 242.867188 105.777344 245.4375 M 105.191406 234.914062 C 107.019531 235.1875 107.796875 234.40625 107.527344 232.574219 C 105.292969 231.386719 104.011719 232.671875 105.191406 234.914062 M 282.976562 203.925781 C 283.871094 195.910156 280.917969 184.855469 275.402344 181.710938 C 267.574219 177.246094 256.515625 181.632812 249.171875 182.882812 C 226.265625 186.777344 202.117188 193.132812 179.222656 193.988281 C 155.1875 194.886719 127.050781 184.171875 109.277344 188.140625 C 105.25 193.460938 99.257812 194.804688 97.03125 201.003906 C 92.882812 212.585938 104.648438 224.261719 111.023438 231.40625 C 120.722656 233.914062 127.484375 242.085938 137.839844 245.4375 C 139.601562 246.011719 141.761719 245.488281 143.667969 246.023438 C 149.640625 247.703125 155.082031 250.707031 161.738281 251.867188 C 186.699219 256.226562 221.820312 258.5625 244.511719 247.191406 C 253.054688 242.910156 259.136719 235.1875 267.824219 231.40625 C 272.160156 223.292969 281.828125 214.277344 282.976562 203.925781 M 278.898438 171.773438 C 281.3125 172.242188 281.890625 170.875 281.816406 168.847656 C 281.070312 168.816406 281.007812 168.101562 280.0625 168.265625 C 279.546875 169.304688 278.4375 169.75 278.898438 171.773438 M 159.988281 169.433594 L 162.90625 169.433594 C 163.019531 167.757812 162.976562 166.242188 161.152344 166.511719 C 160.902344 167.625 159.898438 167.980469 159.988281 169.433594 M 274.820312 164.753906 C 275.011719 166.683594 278.964844 165.949219 278.898438 164.171875 C 278.707031 162.242188 274.753906 162.976562 274.820312 164.753906 M 153.574219 163 C 154.371094 164.746094 158.25 164.179688 158.242188 161.832031 C 157.621094 159.566406 153.691406 161.207031 153.574219 163 M 99.367188 175.28125 C 106.433594 177.535156 110.625 168.5 108.691406 160.664062 C 107.585938 160.792969 107.402344 160.003906 106.359375 160.078125 C 106.195312 166.84375 104.488281 172.199219 99.367188 175.28125 M 210.703125 135.523438 C 208.113281 139.746094 202.308594 140.75 200.203125 145.460938 C 201.128906 149.023438 198.011719 156.625 202.539062 156.570312 C 203.71875 147.96875 208.289062 137.894531 219.445312 139.617188 C 222.464844 143.792969 223.390625 150.082031 225.273438 155.402344 C 227.058594 154.976562 226.988281 156.410156 228.769531 155.984375 C 230.578125 153.878906 227.277344 153.152344 228.1875 150.136719 C 228.660156 148.277344 232.039062 149.324219 231.683594 146.632812 C 230.261719 145.195312 229.15625 147.0625 227.019531 146.632812 C 227.390625 141.195312 222.660156 140.871094 222.355469 136.109375 C 217.644531 136.054688 213.402344 136.207031 210.703125 135.523438 M 148.332031 134.351562 C 143.75 138.140625 140.148438 142.90625 137.25 148.386719 C 137.769531 148.917969 137.355469 150.109375 137.839844 151.894531 C 136.554688 155.226562 131.230469 151.023438 130.839844 155.402344 C 132.90625 157.230469 137.492188 156.523438 140.167969 157.738281 C 143.714844 148.046875 144.011719 135.089844 159.988281 137.863281 C 164.578125 140.855469 163.699219 149.339844 169.898438 150.726562 C 169.5 140.117188 162.035156 128.636719 148.332031 134.351562 M 180.96875 119.152344 C 179.109375 123.136719 171.792969 121.714844 168.730469 121.492188 C 170.101562 127.285156 180.179688 125.765625 182.71875 122.664062 C 186.222656 118.375 182.863281 112.261719 182.71875 108.628906 C 181.292969 108.109375 180.195312 107.265625 178.054688 107.460938 C 178.488281 111.902344 182.105469 113.136719 180.96875 119.152344 M 296.96875 162.417969 C 297.472656 170.628906 294.734375 174.382812 296.96875 180.539062 C 300.691406 190.796875 314.328125 195.089844 315.621094 206.851562 C 316.652344 216.207031 307.125 223.449219 304.546875 228.484375 C 302.472656 232.53125 299.492188 239.328125 297.550781 244.269531 C 292.582031 256.917969 291.992188 266.832031 276.566406 268.824219 C 276.433594 268.839844 275.183594 268.8125 275.402344 268.824219 C 263.464844 268.179688 248.609375 267.6875 233.433594 267.65625 C 212.582031 267.613281 196.746094 273.597656 178.636719 272.917969 C 175.675781 272.804688 172.917969 271.523438 169.898438 271.160156 C 156.515625 269.566406 137.378906 272.914062 123.847656 274.085938 C 120.335938 274.390625 116.664062 276.257812 113.355469 277.007812 C 110.472656 277.664062 107.046875 277.148438 103.445312 277.59375 C 91.625 279.058594 81.9375 281.550781 74.300781 275.839844 C 73.105469 271.320312 70.21875 269.25 69.636719 265.316406 C 68.566406 258.082031 72.058594 249.984375 69.050781 242.515625 C 65.964844 234.847656 58.589844 227.105469 58.5625 219.128906 C 58.542969 213.355469 63.277344 204.988281 67.304688 200.421875 C 71.945312 195.15625 79.542969 192.542969 84.792969 188.140625 C 86.601562 186.625 87.484375 183.832031 89.453125 181.710938 C 91.46875 179.542969 94.125 178.46875 95.28125 176.449219 C 99.367188 169.34375 99.425781 160.597656 101.695312 154.230469 C 102.578125 151.761719 104.921875 149.511719 106.945312 146.632812 C 111.601562 140 115.988281 133.164062 122.097656 127.925781 C 132.316406 125.050781 138.339844 121.542969 146.582031 118.566406 C 149.039062 117.679688 151.921875 118.03125 154.738281 116.816406 C 157.742188 115.519531 163.28125 111.324219 165.234375 108.628906 C 168.941406 103.507812 168.890625 96.816406 173.976562 94.597656 C 175.941406 93.742188 181.902344 93.546875 185.050781 92.257812 C 191.652344 89.554688 204.683594 99.585938 209.535156 103.953125 C 211.796875 105.984375 213.003906 108.949219 215.363281 110.96875 C 221.675781 116.363281 230.359375 120.722656 236.347656 126.167969 C 243.378906 132.570312 248.503906 141.40625 256.167969 146.632812 C 270.136719 156.15625 283.003906 151.441406 296.96875 162.417969 " fill-opacity="1" fill-rule="evenodd"/><path fill="#000000" d="M 178.054688 107.460938 C 180.195312 107.265625 181.292969 108.109375 182.71875 108.628906 C 182.863281 112.261719 186.222656 118.375 182.71875 122.664062 C 180.179688 125.765625 170.101562 127.285156 168.730469 121.492188 C 171.792969 121.714844 179.109375 123.136719 180.96875 119.152344 C 182.105469 113.136719 178.488281 111.902344 178.054688 107.460938 " fill-opacity="1" fill-rule="evenodd"/><path fill="#000000" d="M 169.894531 150.726562 C 163.703125 149.339844 164.578125 140.855469 159.988281 137.863281 C 144.011719 135.089844 143.714844 148.046875 140.167969 157.738281 C 137.492188 156.523438 132.90625 157.230469 130.839844 155.402344 C 131.230469 151.023438 136.554688 155.226562 137.835938 151.894531 C 137.355469 150.109375 137.769531 148.917969 137.25 148.386719 C 140.148438 142.90625 143.75 138.140625 148.332031 134.351562 C 162.035156 128.636719 169.5 140.117188 169.894531 150.726562 " fill-opacity="1" fill-rule="evenodd"/><path fill="#000000" d="M 222.355469 136.109375 C 222.660156 140.871094 227.390625 141.195312 227.019531 146.632812 C 229.15625 147.0625 230.261719 145.195312 231.683594 146.632812 C 232.039062 149.324219 228.660156 148.277344 228.1875 150.136719 C 227.277344 153.152344 230.578125 153.878906 228.769531 155.984375 C 226.988281 156.410156 227.058594 154.976562 225.273438 155.402344 C 223.390625 150.082031 222.464844 143.792969 219.445312 139.617188 C 208.289062 137.894531 203.71875 147.96875 202.539062 156.570312 C 198.011719 156.625 201.128906 149.023438 200.203125 145.460938 C 202.308594 140.75 208.113281 139.746094 210.703125 135.523438 C 213.402344 136.207031 217.644531 136.054688 222.355469 136.109375 " fill-opacity="1" fill-rule="evenodd"/><path fill="#000000" d="M 106.359375 160.078125 C 107.402344 160.003906 107.589844 160.792969 108.691406 160.664062 C 110.625 168.5 106.433594 177.535156 99.367188 175.28125 C 104.492188 172.199219 106.191406 166.84375 106.359375 160.078125 " fill-opacity="1" fill-rule="evenodd"/><path fill="#000000" d="M 158.242188 161.832031 C 158.25 164.179688 154.371094 164.746094 153.574219 163 C 153.691406 161.207031 157.621094 159.566406 158.242188 161.832031 " fill-opacity="1" fill-rule="evenodd"/><path fill="#000000" d="M 278.898438 164.171875 C 278.964844 165.949219 275.011719 166.683594 274.820312 164.753906 C 274.753906 162.976562 278.707031 162.242188 278.898438 164.171875 " fill-opacity="1" fill-rule="evenodd"/><path fill="#000000" d="M 161.152344 166.511719 C 162.976562 166.242188 163.019531 167.757812 162.90625 169.433594 L 159.988281 169.433594 C 159.898438 167.976562 160.902344 167.625 161.152344 166.511719 " fill-opacity="1" fill-rule="evenodd"/><path fill="#000000" d="M 280.0625 168.265625 C 281.007812 168.101562 281.070312 168.816406 281.8125 168.847656 C 281.890625 170.875 281.3125 172.242188 278.898438 171.773438 C 278.4375 169.75 279.546875 169.304688 280.0625 168.265625 " fill-opacity="1" fill-rule="evenodd"/><path fill="#000000" d="M 173.976562 250.113281 C 187.738281 251.574219 203.496094 254.5 214.777344 249.53125 C 208.855469 245.921875 204.402344 240.84375 200.792969 234.914062 C 199.757812 236.046875 196.230469 238.828125 194.960938 236.085938 C 198.378906 231.808594 208.664062 231.648438 204.871094 222.050781 C 187.628906 214.546875 167.445312 230.25 173.976562 250.113281 M 173.390625 196.328125 C 176.199219 214.203125 205.109375 209.707031 204.289062 193.402344 C 194.238281 196 183.015625 197.109375 173.390625 196.328125 M 146.582031 202.757812 C 153.429688 210.117188 169.394531 206.464844 170.480469 196.328125 C 160.886719 196.59375 153.855469 194.289062 145.414062 193.402344 C 145.023438 197.304688 146.542969 199.289062 146.582031 202.757812 M 121.515625 190.484375 C 119.839844 193.546875 122.730469 197.042969 123.847656 199.25 C 131.222656 201.597656 139.035156 199.414062 141.914062 192.816406 C 135.832031 191.230469 126.789062 189.390625 121.515625 190.484375 M 207.785156 192.816406 C 209.972656 208.640625 238.144531 202.46875 232.851562 187.558594 C 224.863281 189.679688 217.195312 192.128906 207.785156 192.816406 M 250.339844 237.835938 C 253.363281 232.550781 260.777344 231.386719 265.492188 226.730469 C 268.371094 223.882812 269.515625 218.015625 271.320312 213.28125 C 275.359375 202.726562 275.523438 189.074219 261.996094 186.390625 C 260.71875 200.140625 244.457031 206.613281 235.179688 196.328125 C 233.492188 200.675781 228.84375 204.90625 222.941406 205.683594 C 216.078125 206.582031 210.457031 203.511719 206.035156 200.421875 C 202.964844 210.121094 188.972656 211.996094 177.476562 209.773438 C 175.320312 207.648438 174.097656 204.582031 171.058594 203.34375 C 165.808594 212.191406 143.3125 213.21875 142.503906 199.25 C 136.339844 201.324219 130.691406 204.859375 124.429688 202.757812 C 119.730469 201.179688 120.226562 196.402344 115.683594 194.574219 C 109.761719 198.199219 103.304688 202.582031 103.445312 210.941406 C 103.570312 218.394531 109.886719 221.90625 113.941406 225.558594 C 115.976562 227.398438 117.066406 230.089844 118.019531 230.820312 C 125.894531 236.867188 140.171875 240.632812 150.078125 244.269531 C 155.128906 246.125 164.464844 249.121094 169.894531 249.53125 C 169.378906 237.597656 168.660156 230.542969 178.054688 223.804688 C 185.8125 218.25 209.578125 210.832031 208.953125 226.144531 C 208.785156 230.15625 205.691406 230.601562 204.871094 234.914062 C 208.511719 241.207031 214.109375 245.527344 221.195312 248.363281 C 231.699219 245.648438 239.519531 240.238281 250.339844 237.835938 M 237.511719 186.972656 C 237.542969 194.15625 241.128906 197.761719 247.421875 198.664062 C 253.980469 197.714844 257.0625 189.730469 257.332031 184.046875 C 248.253906 184.957031 245.957031 185.691406 237.511719 186.972656 M 267.824219 231.40625 C 259.136719 235.1875 253.054688 242.910156 244.511719 247.191406 C 221.820312 258.5625 186.699219 256.226562 161.738281 251.867188 C 155.082031 250.707031 149.640625 247.703125 143.667969 246.023438 C 141.761719 245.488281 139.601562 246.011719 137.835938 245.4375 C 127.484375 242.085938 120.722656 233.914062 111.023438 231.40625 C 104.648438 224.261719 92.882812 212.585938 97.03125 201.003906 C 99.257812 194.804688 105.25 193.460938 109.277344 188.140625 C 127.050781 184.171875 155.1875 194.886719 179.222656 193.988281 C 202.117188 193.132812 226.265625 186.777344 249.171875 182.882812 C 256.515625 181.632812 267.574219 177.246094 275.402344 181.710938 C 280.917969 184.855469 283.871094 195.910156 282.976562 203.925781 C 281.828125 214.277344 272.160156 223.292969 267.824219 231.40625 " fill-opacity="1" fill-rule="evenodd"/><path fill="#ffffff" d="M 257.332031 184.046875 C 257.0625 189.730469 253.980469 197.714844 247.421875 198.664062 C 241.128906 197.761719 237.542969 194.15625 237.511719 186.972656 C 245.957031 185.691406 248.253906 184.957031 257.332031 184.046875 " fill-opacity="1" fill-rule="evenodd"/><path fill="#aa8c80" d="M 141.335938 223.21875 C 141.203125 224.328125 141.988281 224.511719 141.914062 225.558594 C 144.292969 225.800781 145.589844 224.960938 145.414062 222.636719 C 143.519531 222.296875 142.699219 223.035156 141.335938 223.21875 M 246.839844 220.882812 C 248.699219 221.382812 248.644531 219.960938 249.75 219.714844 C 249.648438 218.066406 248.738281 217.222656 246.839844 217.375 C 246.660156 218.742188 245.695312 219.789062 246.839844 220.882812 M 138.421875 219.128906 C 140.671875 219.242188 141.769531 218.203125 141.914062 216.203125 C 139.542969 215.964844 138.242188 216.800781 138.421875 219.128906 M 241.59375 212.695312 L 241.59375 214.453125 C 242.269531 214.941406 243.152344 215.222656 244.511719 215.039062 C 244.378906 213.929688 245.164062 213.746094 245.09375 212.695312 C 244.34375 211.898438 242.34375 211.898438 241.59375 212.695312 M 221.195312 248.363281 C 214.109375 245.527344 208.511719 241.207031 204.871094 234.914062 C 205.691406 230.601562 208.785156 230.15625 208.953125 226.144531 C 209.578125 210.832031 185.8125 218.25 178.054688 223.804688 C 168.660156 230.542969 169.378906 237.597656 169.894531 249.53125 C 164.464844 249.121094 155.128906 246.125 150.078125 244.269531 C 140.171875 240.632812 125.894531 236.867188 118.019531 230.820312 C 117.066406 230.089844 115.976562 227.398438 113.941406 225.558594 C 109.886719 221.90625 103.570312 218.394531 103.445312 210.941406 C 103.304688 202.582031 109.761719 198.199219 115.683594 194.574219 C 120.226562 196.402344 119.730469 201.183594 124.425781 202.757812 C 130.691406 204.859375 136.339844 201.324219 142.5 199.25 C 143.3125 213.21875 165.808594 212.191406 171.058594 203.34375 C 174.101562 204.582031 175.320312 207.648438 177.476562 209.777344 C 188.972656 211.996094 202.964844 210.121094 206.035156 200.421875 C 210.457031 203.511719 216.078125 206.582031 222.941406 205.683594 C 228.84375 204.90625 233.492188 200.675781 235.179688 196.328125 C 244.457031 206.613281 260.71875 200.140625 261.996094 186.390625 C 275.523438 189.074219 275.359375 202.726562 271.320312 213.28125 C 269.515625 218.015625 268.371094 223.882812 265.492188 226.730469 C 260.777344 231.386719 253.363281 232.550781 250.339844 237.835938 C 239.519531 240.238281 231.699219 245.648438 221.195312 248.363281 " fill-opacity="1" fill-rule="evenodd"/><path fill="#ffffff" d="M 232.851562 187.558594 C 238.144531 202.46875 209.972656 208.640625 207.785156 192.816406 C 217.195312 192.128906 224.863281 189.679688 232.851562 187.558594 " fill-opacity="1" fill-rule="evenodd"/><path fill="#ffffff" d="M 141.914062 192.816406 C 139.035156 199.414062 131.222656 201.597656 123.847656 199.25 C 122.730469 197.042969 119.839844 193.546875 121.515625 190.480469 C 126.789062 189.390625 135.832031 191.230469 141.914062 192.816406 " fill-opacity="1" fill-rule="evenodd"/><path fill="#ffffff" d="M 145.414062 193.402344 C 153.855469 194.289062 160.886719 196.59375 170.480469 196.328125 C 169.394531 206.464844 153.429688 210.117188 146.582031 202.757812 C 146.542969 199.289062 145.023438 197.304688 145.414062 193.402344 " fill-opacity="1" fill-rule="evenodd"/><path fill="#ffffff" d="M 204.289062 193.402344 C 205.109375 209.707031 176.199219 214.203125 173.390625 196.328125 C 183.015625 197.109375 194.238281 196 204.289062 193.402344 " fill-opacity="1" fill-rule="evenodd"/><path fill="#000000" d="M 245.09375 212.695312 C 245.164062 213.746094 244.378906 213.929688 244.511719 215.039062 C 243.152344 215.222656 242.269531 214.941406 241.59375 214.453125 L 241.59375 212.695312 C 242.34375 211.898438 244.34375 211.898438 245.09375 212.695312 " fill-opacity="1" fill-rule="evenodd"/><path fill="#000000" d="M 141.914062 216.203125 C 141.769531 218.203125 140.671875 219.242188 138.421875 219.128906 C 138.242188 216.800781 139.542969 215.964844 141.914062 216.203125 " fill-opacity="1" fill-rule="evenodd"/><path fill="#000000" d="M 246.839844 217.375 C 248.738281 217.222656 249.648438 218.066406 249.75 219.714844 C 248.644531 219.960938 248.699219 221.382812 246.839844 220.882812 C 245.695312 219.789062 246.660156 218.742188 246.839844 217.375 " fill-opacity="1" fill-rule="evenodd"/><path fill="#ff9999" d="M 204.871094 222.050781 C 208.664062 231.648438 198.378906 231.808594 194.960938 236.085938 C 196.230469 238.828125 199.757812 236.046875 200.792969 234.914062 C 204.402344 240.84375 208.855469 245.921875 214.777344 249.53125 C 203.496094 254.5 187.738281 251.574219 173.976562 250.113281 C 167.445312 230.25 187.628906 214.546875 204.871094 222.050781 " fill-opacity="1" fill-rule="evenodd"/><path fill="#000000" d="M 145.414062 222.636719 C 145.589844 224.960938 144.292969 225.800781 141.914062 225.558594 C 141.988281 224.511719 141.203125 224.328125 141.335938 223.21875 C 142.703125 223.035156 143.523438 222.296875 145.414062 222.636719 " fill-opacity="1" fill-rule="evenodd"/><path fill="#000000" d="M 107.527344 232.574219 C 107.796875 234.40625 107.019531 235.1875 105.191406 234.914062 C 104.011719 232.671875 105.292969 231.386719 107.527344 232.574219 " fill-opacity="1" fill-rule="evenodd"/><path fill="#000000" d="M 111.605469 242.515625 C 111.097656 244.929688 108.6875 245.433594 105.777344 245.4375 C 105.957031 242.867188 109.445312 241.230469 111.605469 242.515625 " fill-opacity="1" fill-rule="evenodd"/></svg>